<?xml version="1.0" encoding="UTF-8" standalone="no"?>
<!-- Generated by graphviz version 8.0.5 (0)
 -->

<!-- Title: dag2023060551263985 Pages: 1 -->

<svg
   width="11.819445in"
   height="15.295in"
   viewBox="0 0 851.05002 1101.24"
   version="1.1"
   id="svg348"
   sodipodi:docname="pipeline_documentation.svg"
   inkscape:version="1.2.1 (9c6d41e4, 2022-07-14)"
   xmlns:inkscape="http://www.inkscape.org/namespaces/inkscape"
   xmlns:sodipodi="http://sodipodi.sourceforge.net/DTD/sodipodi-0.dtd"
   xmlns="http://www.w3.org/2000/svg"
   xmlns:svg="http://www.w3.org/2000/svg">
  <defs
     id="defs352" />
  <sodipodi:namedview
     id="namedview350"
     pagecolor="#ffffff"
     bordercolor="#000000"
     borderopacity="0.25"
     inkscape:showpageshadow="2"
     inkscape:pageopacity="0.0"
     inkscape:pagecheckerboard="0"
     inkscape:deskcolor="#d1d1d1"
     inkscape:document-units="pt"
     showgrid="false"
     inkscape:zoom="1.0323759"
     inkscape:cx="537.11056"
     inkscape:cy="1194.8167"
     inkscape:window-width="1920"
     inkscape:window-height="945"
     inkscape:window-x="0"
     inkscape:window-y="25"
     inkscape:window-maximized="0"
     inkscape:current-layer="svg348" />
  <g
     id="graph0"
     class="graph"
     transform="translate(4,821)">
    <title
       id="title2">dag2023060551263985</title>
    <polygon
       fill="#ffffff"
       stroke="none"
       points="-4,4 -4,-821 847.05,-821 847.05,4 "
       id="polygon4" />
    <!-- p0 -->
    <g
       id="node1"
       class="node">
      <title
         id="title6">p0</title>
      <ellipse
         fill="none"
         stroke="#000000"
         cx="198.36"
         cy="-799"
         rx="67.220001"
         ry="18"
         id="ellipse8" />
      <text
         text-anchor="middle"
         x="198.36"
         y="-793.95001"
         font-family="Times, serif"
         font-size="14px"
         id="text10"
         style="fill:#000000;fill-opacity:1;stroke:none;stroke-opacity:1">download_data</text>
    </g>
    <!-- p1 -->
    <g
       id="node2"
       class="node">
      <title
         id="title13">p1</title>
      <ellipse
         fill="none"
         stroke="#000000"
         cx="198.36"
         cy="-710.5"
         rx="87.690002"
         ry="18"
         id="ellipse15" />
      <text
         text-anchor="middle"
         x="198.36"
         y="-705.45001"
         font-family="Times, serif"
         font-size="14px"
         id="text17"
         style="fill:#000000;fill-opacity:1;stroke:none;stroke-opacity:1">extract_new_records</text>
    </g>
    <!-- p0&#45;&gt;p1 -->
    <g
       id="edge1"
       class="edge">
      <title
         id="title20">p0-&gt;p1</title>
      <path
         fill="none"
         stroke="#000000"
         d="m 198.36,-780.91 c 0,11.77 0,27.68 0,41.3"
         id="path22" />
      <polygon
         fill="#000000"
         stroke="#000000"
         points="201.86,-739.85 198.36,-729.85 194.86,-739.85 "
         id="polygon24" />
      <text
         text-anchor="middle"
         x="245.99001"
         y="-749.70001"
         font-family="Times, serif"
         font-size="14px"
         id="text26"
         style="fill:#000000;fill-opacity:1;stroke:none;stroke-opacity:1">downloaded_data</text>
    </g>
    <!-- p2 -->
    <g
       id="node3"
       class="node">
      <title
         id="title29">p2</title>
      <circle
         fill="none"
         stroke="#000000"
         cx="198.36"
         cy="-622"
         id="ellipse31"
         r="3.5999999" />
      <text
         text-anchor="middle"
         x="170.75999"
         y="-628.79999"
         font-family="Times, serif"
         font-size="14px"
         id="text33"
         style="fill:#000000;fill-opacity:1;stroke:none;stroke-opacity:1">splitText</text>
    </g>
    <!-- p1&#45;&gt;p2 -->
    <g
       id="edge2"
       class="edge">
      <title
         id="title36">p1-&gt;p2</title>
      <path
         fill="none"
         stroke="#000000"
         d="m 198.36,-692.41 c 0,16.28 0,40.5 0,55.6"
         id="path38" />
      <polygon
         fill="#000000"
         stroke="#000000"
         points="201.86,-637 198.36,-627 194.86,-637 "
         id="polygon40" />
      <text
         text-anchor="middle"
         x="232.49001"
         y="-661.20001"
         font-family="Times, serif"
         font-size="14px"
         id="text42"
         style="fill:#000000;fill-opacity:1;stroke:none;stroke-opacity:1">filtered_data</text>
    </g>
    <!-- p3 -->
    <g
       id="node4"
       class="node">
      <title
         id="title45">p3</title>
      <ellipse
         fill="none"
         stroke="#000000"
         cx="198.36"
         cy="-533.5"
         rx="67.220001"
         ry="18"
         id="ellipse47" />
      <text
         text-anchor="middle"
         x="198.36"
         y="-528.45001"
         font-family="Times, serif"
         font-size="14px"
         id="text49"
         style="fill:#000000;fill-opacity:1;stroke:none;stroke-opacity:1">transform_data</text>
    </g>
    <!-- p2&#45;&gt;p3 -->
    <g
       id="edge3"
       class="edge">
      <title
         id="title52">p2-&gt;p3</title>
      <path
         fill="none"
         stroke="#000000"
         d="m 198.36,-618.12 c 0,8.56 0,34.54 0,55.3"
         id="path54" />
      <polygon
         fill="#000000"
         stroke="#000000"
         points="201.86,-562.97 198.36,-552.97 194.86,-562.97 "
         id="polygon56" />
    </g>
    <!-- p4 -->
    <g
       id="node5"
       class="node">
      <title
         id="title59">p4</title>
      <ellipse
         fill="none"
         stroke="#000000"
         cx="127.36"
         cy="-445"
         rx="29.34"
         ry="18"
         id="ellipse61" />
      <text
         text-anchor="middle"
         x="127.36"
         y="-439.95001"
         font-family="Times, serif"
         font-size="14px"
         id="text63"
         style="fill:#000000;fill-opacity:1;stroke:none;stroke-opacity:1">align</text>
    </g>
    <!-- p3&#45;&gt;p4 -->
    <g
       id="edge4"
       class="edge">
      <title
         id="title66">p3-&gt;p4</title>
      <path
         fill="none"
         stroke="#000000"
         d="m 172.96,-516.64 c -7.36,5.43 -14.98,11.97 -20.85,19.14 -5.91,7.24 -10.83,16.12 -14.67,24.46"
         id="path68" />
      <polygon
         fill="#000000"
         stroke="#000000"
         points="140.27,-471.76 133.14,-463.93 133.83,-474.5 "
         id="polygon70" />
      <text
         text-anchor="middle"
         x="199.99001"
         y="-484.20001"
         font-family="Times, serif"
         font-size="14px"
         id="text72"
         style="fill:#000000;fill-opacity:1;stroke:none;stroke-opacity:1">transformed_data</text>
    </g>
    <!-- p7 -->
    <g
       id="node10"
       class="node">
      <title
         id="title75">p7</title>
      <ellipse
         fill="none"
         stroke="#000000"
         cx="328.35999"
         cy="-356.5"
         rx="64.660004"
         ry="18"
         id="ellipse77" />
      <text
         text-anchor="middle"
         x="328.35999"
         y="-351.45001"
         font-family="Times, serif"
         font-size="14px"
         id="text79"
         style="fill:#000000;fill-opacity:1;stroke:none;stroke-opacity:1">pangolin_calls</text>
    </g>
    <!-- p3&#45;&gt;p7 -->
    <g
       id="edge9"
       class="edge">
      <title
         id="title82">p3-&gt;p7</title>
      <path
         fill="none"
         stroke="#000000"
         d="m 226.7,-516.84 c 7.58,5.31 15.17,11.83 20.66,19.34 19.44,26.58 6.83,41.68 22.75,70.5 9.06,16.39 22.28,32.55 33.83,45.16"
         id="path84" />
      <polygon
         fill="#000000"
         stroke="#000000"
         points="305.92,-384.78 310.23,-375.1 300.83,-379.98 "
         id="polygon86" />
      <text
         text-anchor="middle"
         x="317.98999"
         y="-439.95001"
         font-family="Times, serif"
         font-size="14px"
         id="text88"
         style="fill:#000000;fill-opacity:1;stroke:none;stroke-opacity:1">transformed_data</text>
    </g>
    <!-- p5 -->
    <g
       id="node6"
       class="node">
      <title
         id="title91">p5</title>
      <ellipse
         fill="none"
         stroke="#000000"
         cx="118.36"
         cy="-356.5"
         rx="52.380001"
         ry="18"
         id="ellipse93" />
      <text
         text-anchor="middle"
         x="118.36"
         y="-351.45001"
         font-family="Times, serif"
         font-size="14px"
         id="text95"
         style="fill:#000000;fill-opacity:1;stroke:none;stroke-opacity:1">load_to_db</text>
    </g>
    <!-- p4&#45;&gt;p5 -->
    <g
       id="edge5"
       class="edge">
      <title
         id="title98">p4-&gt;p5</title>
      <path
         fill="none"
         stroke="#000000"
         d="m 122.59,-427.04 c -1.4,5.68 -2.74,12.09 -3.48,18.04 -0.93,7.54 -1.32,15.75 -1.44,23.36"
         id="path100" />
      <polygon
         fill="#000000"
         stroke="#000000"
         points="121.17,-385.73 117.69,-375.73 114.17,-385.73 "
         id="polygon102" />
      <text
         text-anchor="middle"
         x="183.49001"
         y="-395.70001"
         font-family="Times, serif"
         font-size="14px"
         id="text104"
         style="fill:#000000;fill-opacity:1;stroke:none;stroke-opacity:1">metadata_plus_variants</text>
    </g>
    <!-- p9 -->
    <g
       id="node7"
       class="node">
      <title
         id="title107">p9</title>
      <circle
         fill="none"
         stroke="#000000"
         cx="40.360001"
         cy="-223.75"
         id="ellipse109"
         r="3.5999999" />
      <text
         text-anchor="middle"
         x="18.76"
         y="-230.55"
         font-family="Times, serif"
         font-size="14px"
         id="text111"
         style="fill:#000000;fill-opacity:1;stroke:none;stroke-opacity:1">collect</text>
    </g>
    <!-- p5&#45;&gt;p9 -->
    <g
       id="edge6"
       class="edge">
      <title
         id="title114">p5-&gt;p9</title>
      <path
         fill="none"
         stroke="#000000"
         d="m 67.01,-352.51 c -22.23,4.15 -46.28,13.12 -60.15,32.01 -19.78,26.94 8.19,66.57 23.97,85.26"
         id="path116" />
      <polygon
         fill="#000000"
         stroke="#000000"
         points="33.08,-237.86 37.12,-228.06 27.85,-233.2 "
         id="polygon118" />
      <text
         text-anchor="middle"
         x="75.610001"
         y="-307.20001"
         font-family="Times, serif"
         font-size="14px"
         id="text120"
         style="fill:#000000;fill-opacity:1;stroke:none;stroke-opacity:1">complete_metadata_files</text>
    </g>
    <!-- p8 -->
    <g
       id="node8"
       class="node">
      <title
         id="title123">p8</title>
      <ellipse
         fill="none"
         stroke="#000000"
         cx="248.36"
         cy="-268"
         rx="83.599998"
         ry="18"
         id="ellipse125" />
      <text
         text-anchor="middle"
         x="248.36"
         y="-262.95001"
         font-family="Times, serif"
         font-size="14px"
         id="text127"
         style="fill:#000000;fill-opacity:1;stroke:none;stroke-opacity:1">load_pangolin_data</text>
    </g>
    <!-- p5&#45;&gt;p8 -->
    <g
       id="edge7"
       class="edge">
      <title
         id="title130">p5-&gt;p8</title>
      <path
         fill="none"
         stroke="#000000"
         d="m 130.59,-338.92 c 8.82,11.05 21.55,25.26 35.27,34.92 8.69,6.11 18.6,11.46 28.48,16"
         id="path132" />
      <polygon
         fill="#000000"
         stroke="#000000"
         points="195.39,-290.92 203.15,-283.72 192.59,-284.51 "
         id="polygon134" />
      <text
         text-anchor="middle"
         x="234.61"
         y="-307.20001"
         font-family="Times, serif"
         font-size="14px"
         id="text136"
         style="fill:#000000;fill-opacity:1;stroke:none;stroke-opacity:1">complete_metadata_files</text>
    </g>
    <!-- p11 -->
    <!-- p9&#45;&gt;p11 -->
    <g
       id="edge13"
       class="edge">
      <title
         id="title146">p9-&gt;p11</title>
      <path
         fill="none"
         stroke="#000000"
         d="m 42.45,-220.34 c 9.6,11.06 50.11,57.75 75.92,87.49"
         id="path148" />
      <polygon
         fill="#000000"
         stroke="#000000"
         points="121.63,-135.43 125.54,-125.58 116.34,-130.84 "
         id="polygon150" />
    </g>
    <!-- p10 -->
    <g
       id="node11"
       class="node">
      <title
         id="title153">p10</title>
      <circle
         fill="none"
         stroke="#000000"
         cx="176.36"
         cy="-179.5"
         id="ellipse155"
         r="3.5999999" />
      <text
         text-anchor="middle"
         x="154.75999"
         y="-186.3"
         font-family="Times, serif"
         font-size="14px"
         id="text157"
         style="fill:#000000;fill-opacity:1;stroke:none;stroke-opacity:1">collect</text>
    </g>
    <!-- p8&#45;&gt;p10 -->
    <g
       id="edge12"
       class="edge">
      <title
         id="title160">p8-&gt;p10</title>
      <path
         fill="none"
         stroke="#000000"
         d="m 234.14,-249.91 c -14.51,17.43 -36.58,43.95 -48.82,58.65"
         id="path162" />
      <polygon
         fill="#000000"
         stroke="#000000"
         points="187.49,-189.39 178.4,-183.95 182.11,-193.87 "
         id="polygon164" />
      <text
         text-anchor="middle"
         x="286.48999"
         y="-218.7"
         font-family="Times, serif"
         font-size="14px"
         id="text166"
         style="fill:#000000;fill-opacity:1;stroke:none;stroke-opacity:1">complete_files_pangolin</text>
    </g>
    <!-- p6 -->
    <g
       id="node9"
       class="node">
      <title
         id="title169">p6</title>
      <ellipse
         fill="none"
         stroke="#000000"
         cx="465.35999"
         cy="-445"
         rx="90.760002"
         ry="18"
         id="ellipse171" />
      <text
         text-anchor="middle"
         x="465.35999"
         y="-439.95001"
         font-family="Times, serif"
         font-size="14px"
         id="text173"
         style="fill:#000000;fill-opacity:1;stroke:none;stroke-opacity:1">get_pangolin_version</text>
    </g>
    <!-- p6&#45;&gt;p8 -->
    <g
       id="edge11"
       class="edge">
      <title
         id="title176">p6-&gt;p8</title>
      <path
         fill="none"
         stroke="#000000"
         d="m 468.23,-426.6 c 3.8,29.57 6.62,89.6 -25.87,122.6 -14.86,15.1 -60.71,23.78 -104.11,28.72"
         id="path178" />
      <polygon
         fill="#000000"
         stroke="#000000"
         points="338.9,-271.73 328.59,-274.14 338.16,-278.69 "
         id="polygon180" />
      <text
         text-anchor="middle"
         x="504.48999"
         y="-351.45001"
         font-family="Times, serif"
         font-size="14px"
         id="text182"
         style="fill:#000000;fill-opacity:1;stroke:none;stroke-opacity:1">use_pending</text>
    </g>
    <!-- p6&#45;&gt;p7 -->
    <g
       id="edge8"
       class="edge">
      <title
         id="title185">p6-&gt;p7</title>
      <path
         fill="none"
         stroke="#000000"
         d="m 400.54,-432.13 c -15.76,5.17 -31.71,12.57 -44.43,23.13 -7.74,6.44 -13.65,15.62 -17.99,24.45"
         id="path187" />
      <polygon
         fill="#000000"
         stroke="#000000"
         points="340.96,-383.29 333.74,-375.53 334.54,-386.09 "
         id="polygon189" />
      <text
         text-anchor="middle"
         x="403.98999"
         y="-395.70001"
         font-family="Times, serif"
         font-size="14px"
         id="text191"
         style="fill:#000000;fill-opacity:1;stroke:none;stroke-opacity:1">transformed_data</text>
    </g>
    <!-- p7&#45;&gt;p8 -->
    <g
       id="edge10"
       class="edge">
      <title
         id="title194">p7-&gt;p8</title>
      <path
         fill="none"
         stroke="#000000"
         d="m 323.96,-338.26 c -3.42,10.78 -9.05,24.43 -17.6,34.26 -4.2,4.83 -9.24,9.19 -14.57,13.06"
         id="path196" />
      <polygon
         fill="#000000"
         stroke="#000000"
         points="293.92,-287.49 283.65,-284.89 290.06,-293.32 "
         id="polygon198" />
      <text
         text-anchor="middle"
         x="377.48999"
         y="-307.20001"
         font-family="Times, serif"
         font-size="14px"
         id="text200"
         style="fill:#000000;fill-opacity:1;stroke:none;stroke-opacity:1">pangolin_lineage_data</text>
    </g>
    <!-- p10&#45;&gt;p11 -->
    <g
       id="edge14"
       class="edge">
      <title
         id="title203">p10-&gt;p11</title>
      <path
         fill="none"
         stroke="#000000"
         d="m 175,-175.8 c -3.47,6.83 -12.91,25.45 -21.06,41.53"
         id="path205" />
      <polygon
         fill="#000000"
         stroke="#000000"
         points="156.74,-133.06 149.1,-125.72 150.5,-136.23 "
         id="polygon207" />
    </g>
    <!-- p12 -->
    <g
       id="node13"
       class="node"
       transform="translate(0,-88.505193)">
      <title
         id="title210">p12</title>
      <ellipse
         fill="none"
         stroke="#000000"
         cx="140.36"
         cy="-18"
         rx="113.28"
         ry="18"
         id="ellipse212" />
      <text
         text-anchor="middle"
         x="140.36"
         y="-12.95"
         font-family="Times, serif"
         font-size="14px"
         id="text214"
         style="fill:#000000;fill-opacity:1;stroke:none;stroke-opacity:1">recalculate_database_views</text>
    </g>
    <g
       id="node13-0"
       class="node"
       transform="translate(0.35905226,0.70496034)">
      <title
         id="title210-2">p12</title>
      <ellipse
         fill="none"
         stroke="#000000"
         cx="140.36"
         cy="-18"
         rx="113.28"
         ry="18"
         id="ellipse212-4" />
      <text
         text-anchor="middle"
         x="140.36"
         y="-12.95"
         font-family="Times, serif"
         font-size="14px"
         id="text214-8"
         style="fill:#000000;fill-opacity:1;stroke:none;stroke-opacity:1">recompute_affected_primers</text>
    </g>
    <!-- p11&#45;&gt;p12 -->
    <g
       id="edge15-8"
       class="edge"
       transform="translate(-1.4427443,0.53120134)">
      <title
         id="title217-1">p11-&gt;p12</title>
      <path
         fill="none"
         stroke="#000000"
         d="m 140.36,-88.41 c 0,11.77 0,27.68 0,41.3"
         id="path219-4" />
      <polygon
         fill="#000000"
         stroke="#000000"
         points="140.36,-37.35 136.86,-47.35 143.86,-47.35 "
         id="polygon221-7" />
      <text
         text-anchor="middle"
         x="166.99083"
         y="-57.200001"
         font-family="Times, serif"
         font-size="14px"
         id="text223-1"
         style="fill:#000000;fill-opacity:1;stroke:none;stroke-opacity:1">complete</text>
    </g>
    <!-- p0b -->
    <g
       id="node14"
       class="node">
      <title
         id="title226">p0b</title>
      <ellipse
         fill="none"
         stroke="#000000"
         cx="592.35999"
         cy="-622"
         rx="77.449997"
         ry="18"
         id="ellipse228" />
      <text
         text-anchor="middle"
         x="592.35999"
         y="-616.95001"
         font-family="Times, serif"
         font-size="14px"
         id="text230"
         style="fill:#000000;fill-opacity:1;stroke:none;stroke-opacity:1">get_new_versions</text>
    </g>
    <!-- p4b -->
    <g
       id="node15"
       class="node">
      <title
         id="title233">p4b</title>
      <ellipse
         fill="none"
         stroke="#000000"
         cx="657.35999"
         cy="-533.5"
         rx="64.660004"
         ry="18"
         id="ellipse235" />
      <text
         text-anchor="middle"
         x="657.35999"
         y="-528.45001"
         font-family="Times, serif"
         font-size="14px"
         id="text237"
         style="fill:#000000;fill-opacity:1;stroke:none;stroke-opacity:1">pangolin_calls</text>
    </g>
    <!-- p0b&#45;&gt;p4b -->
    <g
       id="edge16"
       class="edge">
      <title
         id="title240">p0b-&gt;p4b</title>
      <path
         fill="none"
         stroke="#000000"
         d="m 602.58,-603.85 c 6.33,10.24 14.84,23.35 23.28,34.35 2.62,3.4 5.48,6.88 8.39,10.27"
         id="path242" />
      <polygon
         fill="#000000"
         stroke="#000000"
         points="636.42,-561.94 640.43,-552.13 631.18,-557.29 "
         id="polygon244" />
      <text
         text-anchor="middle"
         x="667.60999"
         y="-572.70001"
         font-family="Times, serif"
         font-size="14px"
         id="text246"
         style="fill:#000000;fill-opacity:1;stroke:none;stroke-opacity:1">latest_pangolin</text>
    </g>
    <!-- p5b -->
    <g
       id="node19"
       class="node">
      <title
         id="title249">p5b</title>
      <ellipse
         fill="none"
         stroke="#000000"
         cx="657.35999"
         cy="-445"
         rx="83.599998"
         ry="18"
         id="ellipse251" />
      <text
         text-anchor="middle"
         x="657.35999"
         y="-439.95001"
         font-family="Times, serif"
         font-size="14px"
         id="text253"
         style="fill:#000000;fill-opacity:1;stroke:none;stroke-opacity:1">load_pangolin_data</text>
    </g>
    <!-- p4b&#45;&gt;p5b -->
    <g
       id="edge20"
       class="edge">
      <title
         id="title256">p4b-&gt;p5b</title>
      <path
         fill="none"
         stroke="#000000"
         d="m 657.36,-515.41 c 0,11.77 0,27.68 0,41.3"
         id="path258" />
      <polygon
         fill="#000000"
         stroke="#000000"
         points="660.86,-474.35 657.36,-464.35 653.86,-474.35 "
         id="polygon260" />
    </g>
    <!-- p1b -->
    <g
       id="node16"
       class="node">
      <title
         id="title263">p1b</title>
      <ellipse
         fill="none"
         stroke="#000000"
         cx="755.35999"
         cy="-799"
         rx="87.690002"
         ry="18"
         id="ellipse265" />
      <text
         text-anchor="middle"
         x="755.35999"
         y="-793.95001"
         font-family="Times, serif"
         font-size="14px"
         id="text267"
         style="fill:#000000;fill-opacity:1;stroke:none;stroke-opacity:1">extract_new_records</text>
    </g>
    <!-- p2b -->
    <g
       id="node17"
       class="node">
      <title
         id="title270">p2b</title>
      <circle
         fill="none"
         stroke="#000000"
         cx="755.35999"
         cy="-710.5"
         id="ellipse272"
         r="3.5999999" />
      <text
         text-anchor="middle"
         x="727.76001"
         y="-717.29999"
         font-family="Times, serif"
         font-size="14px"
         id="text274"
         style="fill:#000000;fill-opacity:1;stroke:none;stroke-opacity:1">splitText</text>
    </g>
    <!-- p1b&#45;&gt;p2b -->
    <g
       id="edge17"
       class="edge">
      <title
         id="title277">p1b-&gt;p2b</title>
      <path
         fill="none"
         stroke="#000000"
         d="m 755.36,-780.91 c 0,16.28 0,40.5 0,55.6"
         id="path279" />
      <polygon
         fill="#000000"
         stroke="#000000"
         points="758.86,-725.5 755.36,-715.5 751.86,-725.5 "
         id="polygon281" />
    </g>
    <!-- p3b -->
    <g
       id="node18"
       class="node">
      <title
         id="title284">p3b</title>
      <ellipse
         fill="none"
         stroke="#000000"
         cx="755.35999"
         cy="-622"
         rx="67.220001"
         ry="18"
         id="ellipse286" />
      <text
         text-anchor="middle"
         x="755.35999"
         y="-616.95001"
         font-family="Times, serif"
         font-size="14px"
         id="text288"
         style="fill:#000000;fill-opacity:1;stroke:none;stroke-opacity:1">transform_data</text>
    </g>
    <!-- p2b&#45;&gt;p3b -->
    <g
       id="edge18"
       class="edge">
      <title
         id="title291">p2b-&gt;p3b</title>
      <path
         fill="none"
         stroke="#000000"
         d="m 755.36,-706.62 c 0,8.56 0,34.54 0,55.3"
         id="path293" />
      <polygon
         fill="#000000"
         stroke="#000000"
         points="758.86,-651.47 755.36,-641.47 751.86,-651.47 "
         id="polygon295" />
    </g>
    <!-- p3b&#45;&gt;p4b -->
    <g
       id="edge19"
       class="edge">
      <title
         id="title298">p3b-&gt;p4b</title>
      <path
         fill="none"
         stroke="#000000"
         d="m 741.85,-604.32 c -8.95,10.56 -21.25,24.17 -33.49,34.82 -5.1,4.44 -10.78,8.82 -16.44,12.89"
         id="path300" />
      <polygon
         fill="#000000"
         stroke="#000000"
         points="694.32,-553.33 684.11,-550.49 690.33,-559.07 "
         id="polygon302" />
    </g>
    <!-- p6b -->
    <g
       id="node20"
       class="node">
      <title
         id="title305">p6b</title>
      <circle
         fill="none"
         stroke="#000000"
         cx="657.35999"
         cy="-356.5"
         id="ellipse307"
         r="3.5999999" />
      <text
         text-anchor="middle"
         x="635.76001"
         y="-363.29999"
         font-family="Times, serif"
         font-size="14px"
         id="text309"
         style="fill:#000000;fill-opacity:1;stroke:none;stroke-opacity:1">collect</text>
    </g>
    <!-- p5b&#45;&gt;p6b -->
    <g
       id="edge21"
       class="edge">
      <title
         id="title312">p5b-&gt;p6b</title>
      <path
         fill="none"
         stroke="#000000"
         d="m 657.36,-426.91 c 0,16.28 0,40.5 0,55.6"
         id="path314" />
      <polygon
         fill="#000000"
         stroke="#000000"
         points="660.86,-371.5 657.36,-361.5 653.86,-371.5 "
         id="polygon316" />
    </g>
    <!-- p7b -->
    <g
       id="node21"
       class="node">
      <title
         id="title319">p7b</title>
      <ellipse
         fill="none"
         stroke="#000000"
         cx="657.35999"
         cy="-268"
         rx="87.690002"
         ry="18"
         id="ellipse321" />
      <text
         text-anchor="middle"
         x="657.35999"
         y="-262.95001"
         font-family="Times, serif"
         font-size="14px"
         id="text323"
         style="fill:#000000;fill-opacity:1;stroke:none;stroke-opacity:1">update_current_calls</text>
    </g>
    <!-- p6b&#45;&gt;p7b -->
    <g
       id="edge22"
       class="edge">
      <title
         id="title326">p6b-&gt;p7b</title>
      <path
         fill="none"
         stroke="#000000"
         d="m 657.36,-352.62 c 0,8.56 0,34.54 0,55.3"
         id="path328" />
      <polygon
         fill="#000000"
         stroke="#000000"
         points="660.86,-297.47 657.36,-287.47 653.86,-297.47 "
         id="polygon330" />
    </g>
    <!-- p8b -->
    <g
       id="node22"
       class="node">
      <title
         id="title333">p8b</title>
      <ellipse
         fill="none"
         stroke="#000000"
         cx="657.35999"
         cy="-179.5"
         rx="76.940002"
         ry="18"
         id="ellipse335" />
      <text
         text-anchor="middle"
         x="657.35999"
         y="-174.45"
         font-family="Times, serif"
         font-size="14px"
         id="text337"
         style="fill:#000000;fill-opacity:1;stroke:none;stroke-opacity:1">update_new_calls</text>
    </g>
    <!-- p7b&#45;&gt;p8b -->
    <g
       id="edge23"
       class="edge">
      <title
         id="title340">p7b-&gt;p8b</title>
      <path
         fill="none"
         stroke="#000000"
         d="m 657.36,-249.91 c 0,11.77 0,27.68 0,41.3"
         id="path342" />
      <polygon
         fill="#000000"
         stroke="#000000"
         points="660.86,-208.85 657.36,-198.85 653.86,-208.85 "
         id="polygon344" />
    </g>
  </g>
  <text
     xml:space="preserve"
     style="font-style:normal;font-variant:normal;font-weight:normal;font-stretch:normal;font-size:22.0013px;font-family:sans-serif;-inkscape-font-specification:sans-serif;fill:#1e26ff;fill-opacity:1;stroke:none;stroke-width:0.750044;stroke-opacity:1"
     x="176.0529"
     y="560.8559"
     id="text562-71-8-2-8"><tspan
       sodipodi:role="line"
       id="tspan560-87-2-7-9"
       style="font-style:normal;font-variant:normal;font-weight:normal;font-stretch:normal;font-size:22.0013px;font-family:Times, serif;-inkscape-font-specification:'Times, serif';fill:#4964c5;fill-opacity:1;stroke:none;stroke-width:0.750044;stroke-opacity:1"
       x="176.0529"
       y="560.8559">@</tspan></text>
  <text
     xml:space="preserve"
     style="font-style:normal;font-variant:normal;font-weight:normal;font-stretch:normal;font-size:22.0013px;font-family:sans-serif;-inkscape-font-specification:sans-serif;fill:#1e26ff;fill-opacity:1;stroke:none;stroke-width:0.750044;stroke-opacity:1"
     x="72.057846"
     y="471.32236"
     id="text562-71-8-2-8-8"><tspan
       sodipodi:role="line"
       id="tspan560-87-2-7-9-3"
       style="font-style:normal;font-variant:normal;font-weight:normal;font-stretch:normal;font-size:22.0013px;font-family:Times, serif;-inkscape-font-specification:'Times, serif';fill:#4964c5;fill-opacity:1;stroke:none;stroke-width:0.750044;stroke-opacity:1"
       x="72.057846"
       y="471.32236">@</tspan></text>
  <text
     xml:space="preserve"
     style="font-style:normal;font-variant:normal;font-weight:normal;font-stretch:normal;font-size:22.0013px;font-family:sans-serif;-inkscape-font-specification:sans-serif;fill:#1e26ff;fill-opacity:1;stroke:none;stroke-width:0.750044;stroke-opacity:1"
     x="585.50006"
     y="383.67313"
     id="text562-71-8-2-8-1"><tspan
       sodipodi:role="line"
       id="tspan560-87-2-7-9-66"
       style="font-style:normal;font-variant:normal;font-weight:normal;font-stretch:normal;font-size:22.0013px;font-family:Times, serif;-inkscape-font-specification:'Times, serif';fill:#4964c5;fill-opacity:1;stroke:none;stroke-width:0.750044;stroke-opacity:1"
       x="585.50006"
       y="383.67313">@</tspan></text>
  <text
     xml:space="preserve"
     style="font-style:normal;font-variant:normal;font-weight:normal;font-stretch:normal;font-size:22.0013px;font-family:sans-serif;-inkscape-font-specification:sans-serif;fill:#1e26ff;fill-opacity:1;stroke:none;stroke-width:0.750044;stroke-opacity:1"
     x="581.34991"
     y="560.12933"
     id="text562-71-8-2-8-9"><tspan
       sodipodi:role="line"
       id="tspan560-87-2-7-9-32"
       style="font-style:normal;font-variant:normal;font-weight:normal;font-stretch:normal;font-size:22.0013px;font-family:Times, serif;-inkscape-font-specification:'Times, serif';fill:#4964c5;fill-opacity:1;stroke:none;stroke-width:0.750044;stroke-opacity:1"
       x="581.34991"
       y="560.12933">@</tspan></text>
  <text
     xml:space="preserve"
     style="font-style:normal;font-variant:normal;font-weight:normal;font-stretch:normal;font-size:22.0013px;font-family:sans-serif;-inkscape-font-specification:sans-serif;fill:#1e26ff;fill-opacity:1;stroke:none;stroke-width:0.750044;stroke-opacity:1"
     x="589.34167"
     y="648.76508"
     id="text562-71-8-2-8-0"><tspan
       sodipodi:role="line"
       id="tspan560-87-2-7-9-5"
       style="font-style:normal;font-variant:normal;font-weight:normal;font-stretch:normal;font-size:22.0013px;font-family:Times, serif;-inkscape-font-specification:'Times, serif';fill:#4964c5;fill-opacity:1;stroke:none;stroke-width:0.750044;stroke-opacity:1"
       x="589.34167"
       y="648.76508">@</tspan></text>
  <text
     xml:space="preserve"
     style="font-style:normal;font-variant:normal;font-weight:normal;font-stretch:normal;font-size:22.0013px;font-family:sans-serif;-inkscape-font-specification:sans-serif;fill:#1e26ff;fill-opacity:1;stroke:none;stroke-width:0.750044;stroke-opacity:1"
     x="526.18121"
     y="206.31305"
     id="text562-71-8-2-8-01"><tspan
       sodipodi:role="line"
       id="tspan560-87-2-7-9-9"
       style="font-style:normal;font-variant:normal;font-weight:normal;font-stretch:normal;font-size:22.0013px;font-family:Times, serif;-inkscape-font-specification:'Times, serif';fill:#4964c5;fill-opacity:1;stroke:none;stroke-width:0.750044;stroke-opacity:1"
       x="526.18121"
       y="206.31305">&amp;</tspan></text>
  <text
     xml:space="preserve"
     style="font-style:normal;font-variant:normal;font-weight:normal;font-stretch:normal;font-size:22.0013px;font-family:sans-serif;-inkscape-font-specification:sans-serif;fill:#1e26ff;fill-opacity:1;stroke:none;stroke-width:0.750044;stroke-opacity:1"
     x="386.64197"
     y="382.85794"
     id="text562-71-8-2-8-3"><tspan
       sodipodi:role="line"
       id="tspan560-87-2-7-9-7"
       style="font-style:normal;font-variant:normal;font-weight:normal;font-stretch:normal;font-size:22.0013px;font-family:Times, serif;-inkscape-font-specification:'Times, serif';fill:#4964c5;fill-opacity:1;stroke:none;stroke-width:0.750044;stroke-opacity:1"
       x="386.64197"
       y="382.85794">%</tspan></text>
  <text
     xml:space="preserve"
     style="font-style:normal;font-variant:normal;font-weight:normal;font-stretch:normal;font-size:12.0007px;font-family:sans-serif;-inkscape-font-specification:sans-serif;fill:#1e26ff;fill-opacity:1;stroke-width:0.750044"
     x="202.48448"
     y="580.86908"
     id="text562-71-53-2-1"><tspan
       sodipodi:role="line"
       style="font-style:normal;font-variant:normal;font-weight:normal;font-stretch:normal;font-size:12.0007px;font-family:Times, serif;-inkscape-font-specification:'Times, serif';fill:#4964c5;fill-opacity:1;stroke:none;stroke-width:0.750044;stroke-opacity:1"
       x="202.48448"
       y="580.86908"
       id="tspan1218">writes to current</tspan></text>
  <text
     xml:space="preserve"
     style="font-style:normal;font-variant:normal;font-weight:normal;font-stretch:normal;font-size:12.0007px;font-family:sans-serif;-inkscape-font-specification:sans-serif;fill:#1e26ff;fill-opacity:1;stroke-width:0.750044"
     x="618.14789"
     y="405.52838"
     id="text562-71-53-2-1-8"><tspan
       sodipodi:role="line"
       style="font-style:normal;font-variant:normal;font-weight:normal;font-stretch:normal;font-size:12.0007px;font-family:Times, serif;-inkscape-font-specification:'Times, serif';fill:#4964c5;fill-opacity:1;stroke:none;stroke-width:0.750044;stroke-opacity:1"
       x="618.14789"
       y="405.52838"
       id="tspan6107-0-4">writes to pending</tspan></text>
  <text
     xml:space="preserve"
     style="font-style:normal;font-variant:normal;font-weight:normal;font-stretch:normal;font-size:12.0007px;font-family:sans-serif;-inkscape-font-specification:sans-serif;fill:#1e26ff;fill-opacity:1;stroke-width:0.750044"
     x="614.93463"
     y="671.12616"
     id="text562-71-53-2-1-0"><tspan
       sodipodi:role="line"
       style="font-style:normal;font-variant:normal;font-weight:normal;font-stretch:normal;font-size:12.0007px;font-family:Times, serif;-inkscape-font-specification:'Times, serif';fill:#4964c5;fill-opacity:1;stroke:none;stroke-width:0.750044;stroke-opacity:1"
       x="614.93463"
       y="671.12616"
       id="tspan6107-0-0" /></text>
  <path
     style="fill:none;fill-opacity:1;stroke:none;stroke-width:0.750044;stroke-opacity:1"
     d="m 569.21154,167.45135 c 1.36994,0.34248 3.76735,2.3974 4.10983,1.02745 0.34249,-1.36994 -5.52194,-1.02745 -4.10983,-1.02745 4.54633,0 11.45824,2.02368 16.43933,1.02745 2.73372,-0.54674 5.49569,-1.37392 8.21965,-2.05491 2.98616,-0.74654 7.13661,0 10.27458,0 7.87718,0 15.75435,0 23.63153,0 2.62251,0 15.47326,-0.99676 17.46678,0 4.70227,2.35113 -4.35993,-0.42585 3.08237,2.05491 1.34799,0.44934 4.13114,0.0213 5.13729,1.02746 0.24218,0.24218 -0.24217,0.78529 0,1.02746 4.0099,4.00989 0.5518,-0.23783 3.08238,1.02746 4.27603,2.13801 -1.0984,-0.071 1.02745,2.05491 0.43055,0.43055 2.45967,0.71611 3.08238,1.02746 1.23294,0.61648 1.84942,2.4659 3.08237,3.08237 0.6227,0.31135 2.65182,0.59691 3.08237,1.02746 0.24218,0.24217 -0.24217,0.78529 0,1.02746 0.76582,0.76582 2.18124,0.42669 3.08237,1.02746 0.0943,0.0628 9.09014,11.54455 9.24712,12.32949 0.2015,1.00751 -0.32491,2.10764 0,3.08237 1.4362,4.30859 6.36028,6.55582 8.21967,10.27458 1.30863,2.61727 1.4592,5.78491 3.08237,8.21966 0.806,1.209 2.21054,1.91994 3.08237,3.08237 0.36263,0.48351 0.62799,2.68291 1.02746,3.08238 0.54152,0.54151 1.41771,0.60265 2.05491,1.02745 1.5807,1.05381 2.52913,3.05603 4.10984,4.10983 5.42315,3.61544 10.36507,6.4895 15.41186,10.27458 1.77428,1.33071 9.38659,5.41623 10.27457,7.1922 0.48435,0.9687 0.37764,2.21595 1.02746,3.08237 0.4595,0.61266 1.41772,0.60266 2.05492,1.02747 1.29751,0.865 2.24007,2.84637 3.08237,4.10983 0.34249,0.68497 0.68497,1.36994 1.02746,2.05491 0,0.34249 -0.15317,0.72113 0,1.02746 0.89309,1.78619 2.3999,3.2605 3.08237,5.13728 0.71194,1.95784 0.31552,4.20692 1.02746,6.16475 0.68247,1.87678 2.3407,3.2831 3.08237,5.13729 4.38878,4.6839 2.08217,11.1674 4.10983,16.43932 0.99122,2.57717 3.04783,4.6434 4.10983,7.1922 0.57636,1.38326 0.88671,6.46735 2.05495,8.21967 0.18998,0.28496 0.87425,-0.30633 1.02741,0 0.54798,1.09596 -0.54799,3.01387 0,4.10983 0.43322,0.86643 1.62174,1.18849 2.05497,2.05492 0.75319,1.50647 1.46288,4.38871 2.05489,6.16474 0.34915,1.04754 -0.60063,3.20895 0,4.10983 0.53733,0.80601 1.51757,1.24891 2.0549,2.05491 1.35225,2.02842 -0.10636,12.64852 -1.02749,15.41187 -0.15316,0.45949 -0.90995,0.55757 -1.02741,1.02746 -0.72529,2.90106 0.72522,6.34606 0,9.24712 -0.37149,1.48591 -1.68347,2.62392 -2.05489,4.10983 -0.59344,2.37353 -0.22239,3.74943 -1.02749,6.16474 -0.69446,2.08329 0.29522,10.86502 1.02749,12.32949 0.21653,0.43322 0.87425,0.56797 1.02741,1.02746 0.17123,0.51373 -0.0856,2.31178 0,3.08238 0.60146,5.41328 1.18184,10.17328 2.05489,15.41186 0.79385,4.76292 0,14.39473 0,17.46678 0,13.69943 0,27.39887 0,41.0983 0,5.07654 -0.42062,10.36418 0,15.41187 0.49481,5.93769 2.49427,11.58533 3.08238,17.46678 0.39048,3.90463 -0.0983,7.71337 2.05497,11.30203 0.49833,0.83066 1.62168,1.18849 2.0549,2.05492 0.63146,1.26302 0.39595,2.84681 1.02741,4.10983 0.43323,0.86643 1.51764,1.24892 2.05497,2.05492 0.56989,0.85489 -0.32492,2.10764 0,3.08237 0.15316,0.4595 0.87425,0.56797 1.02741,1.02746 2.43082,7.29246 0.80862,16.15347 2.05497,23.63153 0.4099,2.45941 1.72533,4.72074 2.0549,7.1922 0.36212,2.71585 -0.11408,5.48215 0,8.21966 0.22854,5.48571 0.58961,10.96634 1.02741,16.43932 1.75248,21.90536 0.37195,-4.69549 2.05497,20.54915 0.24954,3.74293 -0.33962,7.56682 0,11.30204 1.61664,17.78298 0.11341,-1.37428 3.08238,16.43932 0.78822,4.72957 0,9.58961 0,14.38441 0,4.7948 0.43405,9.6093 0,14.38441 -0.71037,7.81411 -5.38824,13.99977 -7.19225,21.57661 -1.21342,5.09655 -1.42561,10.44168 -3.08238,15.41186 -0.78094,2.34297 -2.78386,4.08116 -4.10979,6.16475 -3.47848,5.46618 -3.57351,6.75408 -8.21966,12.32949 -1.55034,1.86043 -3.60373,3.26296 -5.13727,5.13729 -1.56394,1.91144 -2.46908,4.31887 -4.10986,6.16474 -5.51362,6.20283 -14.10572,8.06098 -21.57661,10.27458 -7.56081,2.24024 -17.44267,6.22235 -25.68645,7.19221 -9.97806,1.17388 -19.80682,0.94497 -29.79627,2.05491 -14.31293,1.59032 6.15164,0.44221 -12.32949,3.08237 -9.80935,1.40134 -22.57199,0 -32.87865,0 -8.4315,0 -28.75589,1.62196 -36.98847,-3.08237 -1.2616,-0.72091 -1.8364,-2.33479 -3.08238,-3.08238 -5.98027,-3.58816 -12.83599,-3.97597 -18.49423,-8.21965 -3.09983,-2.32488 -5.36335,-5.60138 -8.21966,-8.21967 -2.32761,-2.13364 -4.95947,-3.93201 -7.1922,-6.16474 -5.84384,-5.84384 -12.79103,-16.61789 -17.46679,-23.63153 -1.02305,-1.53459 -1.07741,-3.57329 -2.05491,-5.13729 -0.90759,-1.45214 -2.23277,-2.62302 -3.08237,-4.10983 -2.73856,-4.79247 -3.23641,-10.34283 -5.1373,-15.41186 -0.53779,-1.43413 -1.51711,-2.67571 -2.05491,-4.10983 -2.5364,-6.76374 -2.49711,-13.52603 -3.08237,-20.54916 -0.14503,-1.7403 -0.86935,-3.39812 -1.02746,-5.13728 -0.50818,-5.58999 0,-11.87093 0,-17.46678 0,-3.42486 -0.83065,-6.95198 0,-10.27458 2.5007,-10.0028 2.7704,-5.46732 5.13729,-13.35695 1.70691,-5.6897 3.69526,-11.69867 5.13729,-17.46678 1.36971,-5.47883 1.87732,-15.17507 5.13729,-19.52169 1.45304,-1.9374 3.62443,-3.24623 5.13729,-5.1373 2.7317,-3.41462 5.43248,-8.96341 6.16474,-13.35695 2.05283,-12.31697 -3.69064,10.65274 1.02746,-8.21965 0.90097,-3.60389 2.95479,-6.80947 4.10983,-10.27458 0.41098,-1.23295 -0.41099,-2.87689 0,-4.10983 0.24217,-0.72652 0.84171,-1.31196 1.02746,-2.05492 1.65963,-6.63854 -0.99573,-15.63397 0,-22.60406 0.30633,-2.1443 1.74858,-4.02045 2.05491,-6.16475 0.43796,-3.06574 0.27661,-6.24374 1.02746,-9.24712 0.18574,-0.74296 0.68497,-1.36994 1.02745,-2.05492 0.3425,-1.02745 0.76479,-2.03167 1.02747,-3.08237 0.97664,-3.90659 1.84597,-9.64774 3.08237,-13.35695 0.15316,-0.45949 0.87429,-0.56797 1.02746,-1.02746 0.78008,-2.34024 -0.39924,-5.8242 0,-8.21966 1.01292,-6.07754 1.88144,-12.4896 3.08237,-18.49424 1.73017,-8.65086 0.0159,-0.0317 2.05491,-4.10983 0.4595,-0.91898 -0.24919,-2.08559 0,-3.08237 1.24039,-4.96154 0.48827,0.0509 2.05492,-3.08237 0.47043,-0.94086 -0.13364,-4.60271 0,-5.13729 0.11747,-0.46989 0.81085,-0.59424 1.02745,-1.02745 0.52271,-1.04541 -0.81456,-4.32273 0,-5.1373 0.24218,-0.24217 0.78529,0.24218 1.02747,0 0.0712,-0.0712 0,-20.96023 0,-21.57661 0,-17.40365 0.7897,-35.02691 0,-52.40034 -0.0793,-1.74454 -0.88244,-3.39697 -1.02747,-5.13728 -0.19909,-2.38913 0.42886,-4.83348 0,-7.19221 -0.27398,-1.50693 -1.63413,-2.63712 -2.05491,-4.10983 -0.28226,-0.98792 0.16891,-2.0689 0,-3.08237 -0.40885,-2.45306 -4.41104,-16.59885 -6.16474,-19.5217 -0.49839,-0.83065 -1.51758,-1.24891 -2.05492,-2.05492 -0.18997,-0.28496 0,-0.68497 0,-1.02745 -0.34249,-0.68497 -0.48594,-1.5134 -1.02746,-2.05492 -0.24217,-0.24217 -0.82196,0.27399 -1.02745,0 -1.83798,-2.45063 -2.53379,-5.59291 -4.10983,-8.21966 -0.96367,-1.6061 -3.7725,-2.74503 -5.13729,-4.10983 -3.42486,-3.42486 -6.71558,-6.98934 -10.27458,-10.27457 -2.34436,-2.16403 -2.83076,-1.69846 -5.13729,-3.08238 -3.68601,-2.21161 -7.85978,-4.61051 -11.30203,-7.1922 -1.52538,-1.14403 -2.52713,-3.0547 -4.10983,-4.10983 -1.8066,-1.2044 -4.64684,-2.59193 -6.16475,-4.10984 -0.87317,-0.87317 -1.314,-2.09449 -2.05491,-3.08236 -1.62188,-2.16251 -3.63943,-3.91796 -5.13729,-6.16475 -4.90948,-7.36422 -4.10983,-20.09225 -4.10983,-28.76882 0,-2.27432 -0.72634,-6.04066 0,-8.21966 0.15316,-0.45949 0.87429,-0.56796 1.02745,-1.02745 0.21661,-0.64982 -0.2166,-1.4051 0,-2.05492 1.49804,-4.49412 5.40599,-6.68637 9.24712,-9.24712 1.98304,-1.32202 5.31818,-0.0904 7.19221,-1.02746 4.9674,-2.4837 -9.20087,-0.13421 6.16474,-2.05491 3.35543,-0.41943 6.94185,0.55546 10.27458,0 1.5108,-0.2518 2.62392,-1.68344 4.10983,-2.05492 1.61169,-0.40292 3.52559,0.40293 5.13729,0 0.73213,-0.18303 4.69977,-1.94553 5.13729,-2.05491 2.70396,-0.676 4.51345,-0.13455 7.1922,-1.02746 1.40345,-0.46782 11.29405,1.01948 11.30203,1.02746 0.24217,0.24217 -0.24217,0.78528 0,1.02745 1.23485,1.23485 3.44309,-0.6039 5.13729,-1.02745 z"
     id="path9291" />
  <text
     xml:space="preserve"
     style="font-style:normal;font-variant:normal;font-weight:normal;font-stretch:normal;font-size:22.0013px;font-family:Times, serif;-inkscape-font-specification:'Times, serif';fill:#e90000;fill-opacity:1;stroke:#e90000;stroke-width:0.750044;stroke-opacity:1"
     x="47.95047"
     y="975.68701"
     id="text14384"><tspan
       sodipodi:role="line"
       id="tspan14382"
       style="fill:#000000;fill-opacity:1;stroke:none;stroke-width:0.750044"
       x="47.95047"
       y="975.68701">@ = Writes to DB</tspan><tspan
       sodipodi:role="line"
       style="fill:#000000;fill-opacity:1;stroke:none;stroke-width:0.750044"
       x="47.95047"
       y="1003.1887"
       id="tspan14388">&amp; = Writes Pangolin version files</tspan><tspan
       sodipodi:role="line"
       style="fill:#000000;fill-opacity:1;stroke:none;stroke-width:0.750044"
       x="47.95047"
       y="1030.6903"
       id="tspan14392">% = Reads Pangolin version files</tspan></text>
</svg>
