<?xml version="1.0" encoding="UTF-8" standalone="no"?>
<!DOCTYPE svg PUBLIC "-//W3C//DTD SVG 1.1//EN"
 "http://www.w3.org/Graphics/SVG/1.1/DTD/svg11.dtd">
<!-- Generated by graphviz version 8.0.5 (0)
 -->
<!-- Title: update_visualization_data Pages: 1 -->
<svg width="998pt" height="404pt"
 viewBox="0.00 0.00 997.56 404.00" xmlns="http://www.w3.org/2000/svg" xmlns:xlink="http://www.w3.org/1999/xlink">
<g id="graph0" class="graph" transform="scale(1 1) rotate(0) translate(4 400)">
<title>update_visualization_data</title>
<polygon fill="white" stroke="none" points="-4,4 -4,-400 993.56,-400 993.56,4 -4,4"/>
<!-- update_visualization_data -->
<g id="node1" class="node">
<title>update_visualization_data</title>
<ellipse fill="none" stroke="black" cx="602.52" cy="-378" rx="117.89" ry="18"/>
<text text-anchor="middle" x="602.52" y="-372.95" font-family="Times,serif" font-size="14.00">update_visualization_data.sh</text>
</g>
<!-- recompute_affected_primers -->
<g id="node2" class="node">
<title>recompute_affected_primers</title>
<ellipse fill="none" stroke="black" cx="268.52" cy="-306" rx="128.63" ry="18"/>
<text text-anchor="middle" x="268.52" y="-300.95" font-family="Times,serif" font-size="14.00">recompute_affected_primers.sh</text>
</g>
<!-- update_visualization_data&#45;&gt;recompute_affected_primers -->
<g id="edge4" class="edge">
<title>update_visualization_data&#45;&gt;recompute_affected_primers</title>
<path fill="none" stroke="black" d="M534.93,-362.83C481.12,-351.56 405.66,-335.74 348.78,-323.82"/>
<polygon fill="black" stroke="black" points="349.53,-320.19 339.02,-321.57 348.09,-327.04 349.53,-320.19"/>
</g>
<!-- get_lineage_data -->
<g id="node8" class="node">
<title>get_lineage_data</title>
<ellipse fill="none" stroke="black" cx="499.52" cy="-306" rx="84.11" ry="18"/>
<text text-anchor="middle" x="499.52" y="-300.95" font-family="Times,serif" font-size="14.00">get_lineage_data.sh</text>
</g>
<!-- update_visualization_data&#45;&gt;get_lineage_data -->
<g id="edge2" class="edge">
<title>update_visualization_data&#45;&gt;get_lineage_data</title>
<path fill="none" stroke="black" d="M577.59,-360.05C564.08,-350.87 547.21,-339.41 532.62,-329.49"/>
<polygon fill="black" stroke="black" points="535.11,-326.27 524.87,-323.55 531.18,-332.06 535.11,-326.27"/>
</g>
<!-- get_lineages_to_show -->
<g id="node9" class="node">
<title>get_lineages_to_show</title>
<ellipse fill="none" stroke="black" cx="705.52" cy="-306" rx="104.07" ry="18"/>
<text text-anchor="middle" x="705.52" y="-300.95" font-family="Times,serif" font-size="14.00">get_lineages_to_show.py</text>
</g>
<!-- update_visualization_data&#45;&gt;get_lineages_to_show -->
<g id="edge3" class="edge">
<title>update_visualization_data&#45;&gt;get_lineages_to_show</title>
<path fill="none" stroke="black" d="M627.46,-360.05C640.87,-350.94 657.59,-339.58 672.11,-329.71"/>
<polygon fill="black" stroke="black" points="673.52,-332.3 679.82,-323.79 669.58,-326.52 673.52,-332.3"/>
</g>
<!-- get_primer_sets -->
<g id="node10" class="node">
<title>get_primer_sets</title>
<ellipse fill="none" stroke="black" cx="908.52" cy="-306" rx="81.04" ry="18"/>
<text text-anchor="middle" x="908.52" y="-300.95" font-family="Times,serif" font-size="14.00">get_primer_sets.sh</text>
</g>
<!-- update_visualization_data&#45;&gt;get_primer_sets -->
<g id="edge1" class="edge">
<title>update_visualization_data&#45;&gt;get_primer_sets</title>
<path fill="none" stroke="black" d="M665.93,-362.5C717.68,-350.66 790.55,-333.99 842.9,-322.01"/>
<polygon fill="black" stroke="black" points="843.44,-325.25 852.41,-319.61 841.88,-318.43 843.44,-325.25"/>
</g>
<!-- count_variants -->
<g id="node5" class="node">
<title>count_variants</title>
<ellipse fill="none" stroke="black" cx="80.52" cy="-234" rx="75.92" ry="18"/>
<text text-anchor="middle" x="80.52" y="-228.95" font-family="Times,serif" font-size="14.00">count_variants.sh</text>
</g>
<!-- recompute_affected_primers&#45;&gt;count_variants -->
<g id="edge6" class="edge">
<title>recompute_affected_primers&#45;&gt;count_variants</title>
<path fill="none" stroke="black" d="M224.92,-288.76C196.59,-278.22 159.58,-264.44 130.13,-253.47"/>
<polygon fill="black" stroke="black" points="131.64,-249.93 121.05,-249.72 129.2,-256.49 131.64,-249.93"/>
</g>
<!-- extract_all_variants -->
<g id="node6" class="node">
<title>extract_all_variants</title>
<ellipse fill="none" stroke="black" cx="268.52" cy="-234" rx="94.34" ry="18"/>
<text text-anchor="middle" x="268.52" y="-228.95" font-family="Times,serif" font-size="14.00">extract_all_variants.sh</text>
</g>
<!-- recompute_affected_primers&#45;&gt;extract_all_variants -->
<g id="edge5" class="edge">
<title>recompute_affected_primers&#45;&gt;extract_all_variants</title>
<path fill="none" stroke="black" d="M268.52,-287.7C268.52,-280.24 268.52,-271.32 268.52,-262.97"/>
<polygon fill="black" stroke="black" points="272.02,-263.1 268.52,-253.1 265.02,-263.1 272.02,-263.1"/>
</g>
<!-- process_primer_sets -->
<g id="node12" class="node">
<title>process_primer_sets</title>
<ellipse fill="none" stroke="black" cx="478.52" cy="-234" rx="97.41" ry="18"/>
<text text-anchor="middle" x="478.52" y="-228.95" font-family="Times,serif" font-size="14.00">process_primer_sets.sh</text>
</g>
<!-- recompute_affected_primers&#45;&gt;process_primer_sets -->
<g id="edge7" class="edge">
<title>recompute_affected_primers&#45;&gt;process_primer_sets</title>
<path fill="none" stroke="black" d="M316.97,-288.85C348.44,-278.36 389.59,-264.64 422.48,-253.68"/>
<polygon fill="black" stroke="black" points="423.46,-256.71 431.84,-250.23 421.25,-250.07 423.46,-256.71"/>
</g>
<!-- classify_overlaps_py -->
<g id="node3" class="node">
<title>classify_overlaps_py</title>
<ellipse fill="none" stroke="black" cx="478.52" cy="-18" rx="86.67" ry="18"/>
<text text-anchor="middle" x="478.52" y="-12.95" font-family="Times,serif" font-size="14.00">classify_overlaps.py</text>
</g>
<!-- classify_overlaps_sh -->
<g id="node4" class="node">
<title>classify_overlaps_sh</title>
<ellipse fill="none" stroke="black" cx="478.52" cy="-90" rx="85.64" ry="18"/>
<text text-anchor="middle" x="478.52" y="-84.95" font-family="Times,serif" font-size="14.00">classify_overlaps.sh</text>
</g>
<!-- classify_overlaps_sh&#45;&gt;classify_overlaps_py -->
<g id="edge11" class="edge">
<title>classify_overlaps_sh&#45;&gt;classify_overlaps_py</title>
<path fill="none" stroke="black" d="M478.52,-71.7C478.52,-64.24 478.52,-55.32 478.52,-46.97"/>
<polygon fill="black" stroke="black" points="482.02,-47.1 478.52,-37.1 475.02,-47.1 482.02,-47.1"/>
</g>
<!-- filter_variants -->
<g id="node7" class="node">
<title>filter_variants</title>
<ellipse fill="none" stroke="black" cx="80.52" cy="-162" rx="80.52" ry="18"/>
<text text-anchor="middle" x="80.52" y="-156.95" font-family="Times,serif" font-size="14.00">filter_variants.awk</text>
</g>
<!-- count_variants&#45;&gt;filter_variants -->
<g id="edge8" class="edge">
<title>count_variants&#45;&gt;filter_variants</title>
<path fill="none" stroke="black" d="M80.52,-215.7C80.52,-208.24 80.52,-199.32 80.52,-190.97"/>
<polygon fill="black" stroke="black" points="84.02,-191.1 80.52,-181.1 77.02,-191.1 84.02,-191.1"/>
</g>
<!-- primers_affected -->
<g id="node11" class="node">
<title>primers_affected</title>
<ellipse fill="none" stroke="black" cx="478.52" cy="-162" rx="84.62" ry="18"/>
<text text-anchor="middle" x="478.52" y="-156.95" font-family="Times,serif" font-size="14.00">primers_affected.sh</text>
</g>
<!-- primers_affected&#45;&gt;classify_overlaps_sh -->
<g id="edge10" class="edge">
<title>primers_affected&#45;&gt;classify_overlaps_sh</title>
<path fill="none" stroke="black" d="M478.52,-143.7C478.52,-136.24 478.52,-127.32 478.52,-118.97"/>
<polygon fill="black" stroke="black" points="482.02,-119.1 478.52,-109.1 475.02,-119.1 482.02,-119.1"/>
</g>
<!-- process_primer_sets&#45;&gt;primers_affected -->
<g id="edge9" class="edge">
<title>process_primer_sets&#45;&gt;primers_affected</title>
<path fill="none" stroke="black" d="M478.52,-215.7C478.52,-208.24 478.52,-199.32 478.52,-190.97"/>
<polygon fill="black" stroke="black" points="482.02,-191.1 478.52,-181.1 475.02,-191.1 482.02,-191.1"/>
</g>
</g>
</svg>
