<svg id="Layer_1" data-name="Layer 1" xmlns="http://www.w3.org/2000/svg" viewBox="0 0 356.61 84.2"><defs><style>.cls-1{fill:#231f20;}.cls-2,.cls-6{fill:none;}.cls-2{stroke:#231f20;stroke-miterlimit:3.86;stroke-width:0.01px;}.cls-3{fill:#fff;}.cls-4{fill:#f4812a;}.cls-5{fill:#666;}.cls-6{stroke:#666;stroke-linecap:round;stroke-width:0.75px;}</style></defs><path class="cls-1" d="M3.8,19.4C1.5,12.6-1.9,4.4,4,.9c1.6-.9,4-.8,6.7.2C24.1,6,35,23.1,36.4,25.6a4,4,0,0,0,1.7-.2c.7-.4.6-1.2,1.1-1.8a7.83,7.83,0,0,1,1.6-2c.4-.3.7-.2,1-.6A47.66,47.66,0,0,1,54.5,9.8s1.8-1.7,2.4-.7c.2.4-.4.9-.8.9a5.3,5.3,0,0,0-1.9.5,6.35,6.35,0,0,0-1.2.7c-4.2,2.9-6.6,4.7-8.7,7.6a5.5,5.5,0,0,0-.6.8c-.4.5-1.1,1.5-.8,1.3a69.6,69.6,0,0,1,9.5-4.7A29.36,29.36,0,0,1,60,14c.6-.1,1.7-.2,1.2.6-.1.2-.4.2-.6.2-.6.1-.9-.2-1.5-.2a8.38,8.38,0,0,0-3,.8,29.8,29.8,0,0,0-5.9,2.2,52.87,52.87,0,0,0-6.6,3.9,10,10,0,0,1,1.5,2.4,9.37,9.37,0,0,1,.6,2.8A20.41,20.41,0,0,0,48,28.4a9.76,9.76,0,0,1,1.8,1.7,10.44,10.44,0,0,1,1.5,2,3.49,3.49,0,0,1,.6,1.7,2.62,2.62,0,0,1-.5,1.7,1.69,1.69,0,0,1-1,.7,2.21,2.21,0,0,1-1.6,0,2,2,0,0,1-1.2-.8,1.5,1.5,0,0,1-.4-1.1,1.85,1.85,0,0,1,.5-1.2,1.23,1.23,0,0,1,1-.5,1.85,1.85,0,0,1,.7.2,1.39,1.39,0,0,1,.8.7.66.66,0,0,1,.1.6c-.1.1-.1.3-.2.3s-.1-.3-.3-.5a1.72,1.72,0,0,0-.6-.6,1.13,1.13,0,0,0-.8-.1.9.9,0,0,0-.6.6,1.13,1.13,0,0,0,.1.8,1.34,1.34,0,0,0,.6.7,1.4,1.4,0,0,0,.9.3,1.1,1.1,0,0,0,.8,0,1.3,1.3,0,0,0,1-.9c.2-.4.3-1.4.2-1s-.1-.4-.2-.7a3.91,3.91,0,0,0-1-1.6c-.4-.5-.7-.8-1.1-1.3A16.14,16.14,0,0,0,45.3,27a5.82,5.82,0,0,1-1.9-.3,7,7,0,0,1-2.4-.9l.2,1.2.3,1.4-.8.3-1-1.7-.7-.4c-.3,0-.5.1-.7.1-.4.1-.3.6-.4,1.6l-.1,2.8v2.1c-.9-.1-1.4-.3-2.2-.4a11.63,11.63,0,0,1-1.8-.4c-.4-.1-.8-.3-1.1-.2a1.21,1.21,0,0,0-.8,1.1,1.85,1.85,0,0,0,.2.7c.3,1,.9,1.4,1.3,2.4.2.6.7.9.6,1.5s-.4.6-.8,1a3.11,3.11,0,0,1-.9.7,2.61,2.61,0,0,0-.8.3c-.4.3-.3.6-.6,1a4.36,4.36,0,0,1-1.4,1.3,5.3,5.3,0,0,1-1,.6,6.89,6.89,0,0,0-1.5.7c-.9.5-.9,1.3-1.7,1.9a8.17,8.17,0,0,1-2,1.2l-1.6.8c-.7.3-.9.6-1.5.6a1.2,1.2,0,0,1-.8-.2c-.5-.4,0-1.4.2-1.6.4-.6.6-1.3,1.1-2A6.28,6.28,0,0,1,21.8,43a6.89,6.89,0,0,1,1.5-.7l1.6-.8c.7-.4,1-.6,1.7-1a9.55,9.55,0,0,0,1.6-1.2A17.88,17.88,0,0,0,29.6,38a4.18,4.18,0,0,0,1.1-1.5,3.37,3.37,0,0,0,.6-1.7s-.8,1-1.4,1.7a14.82,14.82,0,0,1-2.4,2.6,16.09,16.09,0,0,1-2.8,1.7c-.8.4-1.3.7-2.1,1.1a20.94,20.94,0,0,1-2.3.8,9.83,9.83,0,0,1-1.6.5,9.86,9.86,0,0,1-2.4.3,9.15,9.15,0,0,1-1.7-.1c-.5-.1-.7-.4-1.2-.4s-.8.2-1.3.2a5.66,5.66,0,0,1-1.8-.3,3.92,3.92,0,0,1-1.4-.8c-.5-.4-.6-.9-1.2-1.2a4.49,4.49,0,0,0-1.2-.6c-.6-.3-.9-.5-1.4-.8a5.09,5.09,0,0,1-1.5-1.4c-.4-.7-.3-1.2-.7-1.9s-.8-.7-1.2-1.3a8.26,8.26,0,0,1-.8-2.2,12.09,12.09,0,0,1-.6-3.8,12,12,0,0,1,.5-3.8,10.38,10.38,0,0,1,2.1-4.5,11.46,11.46,0,0,1,.9-1.2" transform="translate(-0.29 -0.28)"/><path class="cls-2" d="M3.8,19.4C1.5,12.6-1.9,4.4,4,.9c1.6-.9,4-.8,6.7.2C24.1,6,35,23.1,36.4,25.6a4,4,0,0,0,1.7-.2c.7-.4.6-1.2,1.1-1.8a7.83,7.83,0,0,1,1.6-2c.4-.3.7-.2,1-.6A47.66,47.66,0,0,1,54.5,9.8s1.8-1.7,2.4-.7c.2.4-.4.9-.8.9a5.3,5.3,0,0,0-1.9.5,6.35,6.35,0,0,0-1.2.7c-4.2,2.9-6.6,4.7-8.7,7.6a5.5,5.5,0,0,0-.6.8c-.4.5-1.1,1.5-.8,1.3a69.6,69.6,0,0,1,9.5-4.7A29.36,29.36,0,0,1,60,14c.6-.1,1.7-.2,1.2.6-.1.2-.4.2-.6.2-.6.1-.9-.2-1.5-.2a8.38,8.38,0,0,0-3,.8,29.8,29.8,0,0,0-5.9,2.2,52.87,52.87,0,0,0-6.6,3.9,10,10,0,0,1,1.5,2.4,9.37,9.37,0,0,1,.6,2.8A20.41,20.41,0,0,0,48,28.4a9.76,9.76,0,0,1,1.8,1.7,10.44,10.44,0,0,1,1.5,2,3.49,3.49,0,0,1,.6,1.7,2.62,2.62,0,0,1-.5,1.7,1.69,1.69,0,0,1-1,.7,2.21,2.21,0,0,1-1.6,0,2,2,0,0,1-1.2-.8,1.5,1.5,0,0,1-.4-1.1,1.85,1.85,0,0,1,.5-1.2,1.23,1.23,0,0,1,1-.5,1.85,1.85,0,0,1,.7.2,1.39,1.39,0,0,1,.8.7.66.66,0,0,1,.1.6c-.1.1-.1.3-.2.3s-.1-.3-.3-.5a1.72,1.72,0,0,0-.6-.6,1.13,1.13,0,0,0-.8-.1.9.9,0,0,0-.6.6,1.13,1.13,0,0,0,.1.8,1.34,1.34,0,0,0,.6.7,1.4,1.4,0,0,0,.9.3,1.1,1.1,0,0,0,.8,0,1.3,1.3,0,0,0,1-.9c.2-.4.3-1.4.2-1s-.1-.4-.2-.7a3.91,3.91,0,0,0-1-1.6c-.4-.5-.7-.8-1.1-1.3A16.14,16.14,0,0,0,45.3,27a5.82,5.82,0,0,1-1.9-.3,7,7,0,0,1-2.4-.9l.2,1.2.3,1.4-.8.3-1-1.7-.7-.4c-.3,0-.5.1-.7.1-.4.1-.3.6-.4,1.6l-.1,2.8v2.1c-.9-.1-1.4-.3-2.2-.4a11.63,11.63,0,0,1-1.8-.4c-.4-.1-.8-.3-1.1-.2a1.21,1.21,0,0,0-.8,1.1,1.85,1.85,0,0,0,.2.7c.3,1,.9,1.4,1.3,2.4.2.6.7.9.6,1.5s-.4.6-.8,1a3.11,3.11,0,0,1-.9.7,2.61,2.61,0,0,0-.8.3c-.4.3-.3.6-.6,1a4.36,4.36,0,0,1-1.4,1.3,5.3,5.3,0,0,1-1,.6,6.89,6.89,0,0,0-1.5.7c-.9.5-.9,1.3-1.7,1.9a8.17,8.17,0,0,1-2,1.2l-1.6.8c-.7.3-.9.6-1.5.6a1.2,1.2,0,0,1-.8-.2c-.5-.4,0-1.4.2-1.6.4-.6.6-1.3,1.1-2A6.28,6.28,0,0,1,21.8,43a6.89,6.89,0,0,1,1.5-.7l1.6-.8c.7-.4,1-.6,1.7-1a9.55,9.55,0,0,0,1.6-1.2A17.88,17.88,0,0,0,29.6,38a4.18,4.18,0,0,0,1.1-1.5,3.37,3.37,0,0,0,.6-1.7s-.8,1-1.4,1.7a14.82,14.82,0,0,1-2.4,2.6,16.09,16.09,0,0,1-2.8,1.7c-.8.4-1.3.7-2.1,1.1a20.94,20.94,0,0,1-2.3.8,9.83,9.83,0,0,1-1.6.5,9.86,9.86,0,0,1-2.4.3,9.15,9.15,0,0,1-1.7-.1c-.5-.1-.7-.4-1.2-.4s-.8.2-1.3.2a5.66,5.66,0,0,1-1.8-.3,3.92,3.92,0,0,1-1.4-.8c-.5-.4-.6-.9-1.2-1.2a4.49,4.49,0,0,0-1.2-.6c-.6-.3-.9-.5-1.4-.8a5.09,5.09,0,0,1-1.5-1.4c-.4-.7-.3-1.2-.7-1.9s-.8-.7-1.2-1.3a8.26,8.26,0,0,1-.8-2.2,12.09,12.09,0,0,1-.6-3.8,12,12,0,0,1,.5-3.8,10.38,10.38,0,0,1,2.1-4.5A11.46,11.46,0,0,1,3.8,19.4Z" transform="translate(-0.29 -0.28)"/><path class="cls-3" d="M42.6,22.9a1.62,1.62,0,0,1-.5,2.1.75.75,0,0,1-.9,0,1.13,1.13,0,0,1-.5-.8,2.2,2.2,0,0,1,.1-.8,2.47,2.47,0,0,1,.4-.9c.2-.2.3-.4.6-.4.5.1.6.4.8.8" transform="translate(-0.29 -0.28)"/><path class="cls-2" d="M42.6,22.9a1.62,1.62,0,0,1-.5,2.1.75.75,0,0,1-.9,0,1.13,1.13,0,0,1-.5-.8,2.2,2.2,0,0,1,.1-.8,2.47,2.47,0,0,1,.4-.9c.2-.2.3-.4.6-.4C42.3,22.2,42.4,22.5,42.6,22.9Z" transform="translate(-0.29 -0.28)"/><path class="cls-1" d="M40.8,29.6l.7,1.2a3.46,3.46,0,0,1,1-1.1,3.67,3.67,0,0,1,1.7-1,17.7,17.7,0,0,1-.1,2.3c-.1,1.5-.4,2.3-.5,3.8a7.52,7.52,0,0,0,0,1.5,5.64,5.64,0,0,0,.4,1.2,5.78,5.78,0,0,0,.5,1.4c.2.3.2.6.5.6s-.1-.6-.1-.9a18,18,0,0,1-.6-3.2,22.54,22.54,0,0,1,.6-3.6,13.73,13.73,0,0,0,.5-2.8c0-.4.2-.8-.1-1s-1.3,0-2.1.3a4.49,4.49,0,0,0-1.2.6,5.35,5.35,0,0,0-1.2.7" transform="translate(-0.29 -0.28)"/><path class="cls-2" d="M40.8,29.6l.7,1.2a3.46,3.46,0,0,1,1-1.1,3.67,3.67,0,0,1,1.7-1,17.7,17.7,0,0,1-.1,2.3c-.1,1.5-.4,2.3-.5,3.8a7.52,7.52,0,0,0,0,1.5,5.64,5.64,0,0,0,.4,1.2,5.78,5.78,0,0,0,.5,1.4c.2.3.2.6.5.6s-.1-.6-.1-.9a18,18,0,0,1-.6-3.2,22.54,22.54,0,0,1,.6-3.6,13.73,13.73,0,0,0,.5-2.8c0-.4.2-.8-.1-1s-1.3,0-2.1.3a4.49,4.49,0,0,0-1.2.6A5.35,5.35,0,0,0,40.8,29.6Z" transform="translate(-0.29 -0.28)"/><path class="cls-1" d="M38.4,32.5c0-.3-.1.5,0,.8s.3.4.6.5.5,0,.6-.2.1-.5.2-.8,0-2.6-.1-1.9a9.54,9.54,0,0,0,2,3.1c.5.6.5,2.2.6,3.2a10.5,10.5,0,0,0,.3,1.9c.3.4.5.3.5.4a10,10,0,0,0-.4-2.6,21.05,21.05,0,0,0-.2-2.5c-.3-.7-.8-1.3-1.2-2.2-.6-1.2-1-1.8-1.6-3a6.3,6.3,0,0,1-.6-1.8.55.55,0,0,0-.5-.3c-.3,0-.2.4-.3.7a4.82,4.82,0,0,0,0,1.2,21.82,21.82,0,0,1,.1,3.5" transform="translate(-0.29 -0.28)"/><path class="cls-2" d="M38.4,32.5c0-.3-.1.5,0,.8s.3.4.6.5.5,0,.6-.2.1-.5.2-.8,0-2.6-.1-1.9a9.54,9.54,0,0,0,2,3.1c.5.6.5,2.2.6,3.2a10.5,10.5,0,0,0,.3,1.9c.3.4.5.3.5.4a10,10,0,0,0-.4-2.6,21.05,21.05,0,0,0-.2-2.5c-.3-.7-.8-1.3-1.2-2.2-.6-1.2-1-1.8-1.6-3a6.3,6.3,0,0,1-.6-1.8.55.55,0,0,0-.5-.3c-.3,0-.2.4-.3.7a4.82,4.82,0,0,0,0,1.2A21.82,21.82,0,0,1,38.4,32.5Z" transform="translate(-0.29 -0.28)"/><polygon class="cls-1" points="38.01 33.72 38.31 34.12 38.31 34.62 37.81 34.92 36.01 34.22 34.71 33.82 33.61 33.52 34.11 35.22 35.11 37.52 36.11 39.62 38.01 40.22 39.81 41.02 39.91 41.62 35.51 39.92 34.21 37.02 32.81 34.52 32.21 33.02 32.51 32.42 33.11 32.62 34.51 32.92 36.71 33.42 38.01 33.72"/><polygon class="cls-2" points="38.01 33.72 38.31 34.12 38.31 34.62 37.81 34.92 36.01 34.22 34.71 33.82 33.61 33.52 34.11 35.22 35.11 37.52 36.11 39.62 38.01 40.22 39.81 41.02 39.91 41.62 35.51 39.92 34.21 37.02 32.81 34.52 32.21 33.02 32.51 32.42 33.11 32.62 34.51 32.92 36.71 33.42 38.01 33.72"/><path class="cls-1" d="M34.8,34.9l.7,1.5a1.08,1.08,0,0,0,.6-.1.73.73,0,0,0,.5-1.1l-1.2-.4Z" transform="translate(-0.29 -0.28)"/><path class="cls-2" d="M34.8,34.9l.7,1.5a1.08,1.08,0,0,0,.6-.1.73.73,0,0,0,.5-1.1l-1.2-.4Z" transform="translate(-0.29 -0.28)"/><path class="cls-3" d="M34.6,31.8a3.59,3.59,0,0,0,1.6-.8,1.91,1.91,0,0,0,.5-1c.7-2.4-2.5-6.7-5.4-10.7a44.12,44.12,0,0,0-5.8-6.4c-1.3-1.3-2-2-3.4-3.2C20.5,8.3,19.6,7.5,18,6.3c-.4-.3-1-.8-1.4-.4-.3.2.2.7-.1.9s-1.5-1-1.9-.6.3,1.3.6,1.5c.1.1-.7-.1-1.2-.2a2.39,2.39,0,0,0-.9-.2c-.7,0-.7.8-.2,1.2,1.1.8.4.4,1,.7A5.58,5.58,0,0,0,17,10.3c.2,0,.3-.1.3-.2.1-1-1.2-1.3-1.2-1.5.2-.5.8.3,1.3.2.2,0,.4,0,.4-.2.3-1-1-1.3-.6-1.4s4.7,3.6,6.1,5.5c.4.5-.9.3-1.5.3-.4,0-.8-.2-1.1.1s.2.8.2,1.3c0,.2.1.3.1.5s-.5,0-.9-.1-.6-.3-.8,0,.6,1.4.7,1.6c.4.6-1.9.1-1.8.9.1.4.6.4.8.8.1.2.3.4.2.6s-1.1.1-.7.3c1.8.8,1.5.6,2.4.4.2-.1.1-.4.1-.6,0-.5-1.2-.7-.8-.9s.6.2,1,.2.9.1,1.1-.2,0-.6-.1-.9-.6-.4-.6-.8c.1-.6,1.2.4,1.5.1s-.6-1.2-.5-1.4c.2-.4,1,.6,1.4.3s-.4-1.7,0-1.4a16.75,16.75,0,0,1,3,2.9,11.37,11.37,0,0,1,1.5,1.6c1,1.1,1.6,1.7,2.6,2.8A24.76,24.76,0,0,1,33,23.7c.6.9,1,1.3,1.5,2.2.7,1.4,1.5,2.7,1.3,4,.1.8-.6,1.2-1.2,1.9" transform="translate(-0.29 -0.28)"/><path class="cls-2" d="M34.6,31.8a3.59,3.59,0,0,0,1.6-.8,1.91,1.91,0,0,0,.5-1c.7-2.4-2.5-6.7-5.4-10.7a44.12,44.12,0,0,0-5.8-6.4c-1.3-1.3-2-2-3.4-3.2C20.5,8.3,19.6,7.5,18,6.3c-.4-.3-1-.8-1.4-.4-.3.2.2.7-.1.9s-1.5-1-1.9-.6.3,1.3.6,1.5c.1.1-.7-.1-1.2-.2a2.39,2.39,0,0,0-.9-.2c-.7,0-.7.8-.2,1.2,1.1.8.4.4,1,.7A5.58,5.58,0,0,0,17,10.3c.2,0,.3-.1.3-.2.1-1-1.2-1.3-1.2-1.5.2-.5.8.3,1.3.2.2,0,.4,0,.4-.2.3-1-1-1.3-.6-1.4s4.7,3.6,6.1,5.5c.4.5-.9.3-1.5.3-.4,0-.8-.2-1.1.1s.2.8.2,1.3c0,.2.1.3.1.5s-.5,0-.9-.1-.6-.3-.8,0,.6,1.4.7,1.6c.4.6-1.9.1-1.8.9.1.4.6.4.8.8.1.2.3.4.2.6s-1.1.1-.7.3c1.8.8,1.5.6,2.4.4.2-.1.1-.4.1-.6,0-.5-1.2-.7-.8-.9s.6.2,1,.2.9.1,1.1-.2,0-.6-.1-.9-.6-.4-.6-.8c.1-.6,1.2.4,1.5.1s-.6-1.2-.5-1.4c.2-.4,1,.6,1.4.3s-.4-1.7,0-1.4a16.75,16.75,0,0,1,3,2.9,11.37,11.37,0,0,1,1.5,1.6c1,1.1,1.6,1.7,2.6,2.8A24.76,24.76,0,0,1,33,23.7c.6.9,1,1.3,1.5,2.2.7,1.4,1.5,2.7,1.3,4C35.9,30.7,35.2,31.1,34.6,31.8Z" transform="translate(-0.29 -0.28)"/><path class="cls-3" d="M12.7,12.5c-.4,0-.8-.1-1.1.2a1.06,1.06,0,0,0,.1,1.3,2.41,2.41,0,0,0,.8.6,6.11,6.11,0,0,0,1.3.3,2.23,2.23,0,0,0,1.4,0,.82.82,0,0,0,.5-.5c.1-.3-.1-.5-.3-.8a2.29,2.29,0,0,0-1-.7,2.68,2.68,0,0,0-1.7-.4" transform="translate(-0.29 -0.28)"/><path class="cls-2" d="M12.7,12.5c-.4,0-.8-.1-1.1.2a1.06,1.06,0,0,0,.1,1.3,2.41,2.41,0,0,0,.8.6,6.11,6.11,0,0,0,1.3.3,2.23,2.23,0,0,0,1.4,0,.82.82,0,0,0,.5-.5c.1-.3-.1-.5-.3-.8a2.29,2.29,0,0,0-1-.7A2.68,2.68,0,0,0,12.7,12.5Z" transform="translate(-0.29 -0.28)"/><path class="cls-3" d="M13.6,9.6c-.3-.1-1.7,0-1.9.5a1,1,0,0,0,.2.9,2.68,2.68,0,0,0,1.3,1,4.28,4.28,0,0,0,1.6.5,1.93,1.93,0,0,0,1.3,0c.3-.1.6-.1.7-.4s-.2-.7-.5-1.1c-.4-.6-.9-.7-1.6-1-.4-.2-.4-.1-1.1-.4" transform="translate(-0.29 -0.28)"/><path class="cls-2" d="M13.6,9.6c-.3-.1-1.7,0-1.9.5a1,1,0,0,0,.2.9,2.68,2.68,0,0,0,1.3,1,4.28,4.28,0,0,0,1.6.5,1.93,1.93,0,0,0,1.3,0c.3-.1.6-.1.7-.4s-.2-.7-.5-1.1c-.4-.6-.9-.7-1.6-1C14.3,9.8,14.3,9.9,13.6,9.6Z" transform="translate(-0.29 -0.28)"/><path class="cls-3" d="M12.4,15.3a1.35,1.35,0,0,0-.9.5c-.3.5-.5,1-.1,1.4s.8.2,1.3.3c1.1.2,2,.5,2.2.3s.4-.3.5-.5-.1-.5-.3-.8a2.29,2.29,0,0,0-1-.7c-.6-.3-1-.7-1.7-.5" transform="translate(-0.29 -0.28)"/><path class="cls-2" d="M12.4,15.3a1.35,1.35,0,0,0-.9.5c-.3.5-.5,1-.1,1.4s.8.2,1.3.3c1.1.2,2,.5,2.2.3s.4-.3.5-.5-.1-.5-.3-.8a2.29,2.29,0,0,0-1-.7C13.5,15.5,13.1,15.1,12.4,15.3Z" transform="translate(-0.29 -0.28)"/><path class="cls-3" d="M19.3,10h1s.2.7.3,1.2a.66.66,0,0,1,.1.6c-.1.2-.4.2-.6.3A10.42,10.42,0,0,1,19,12a2.75,2.75,0,0,1,.8,1.1c0,.2.1.5,0,.6-.6.5-2,.2-2,.2a3.21,3.21,0,0,1,.7,1,3.4,3.4,0,0,1,.1,1c-.3.1-.4.2-.7.3a3.4,3.4,0,0,1-1,.1,2.7,2.7,0,0,1,.7.8,2.1,2.1,0,0,1,.4,1.1,1.72,1.72,0,0,1-.7.4c-.7-.3-1.2-.3-1.6-.5,0,0,.8-.3.8-.7s-.3-.6-.4-1-.3-.6-.1-.9.3-.1.4-.2a2.88,2.88,0,0,1,.6-.4l-.2-1.1c-.1-.4-.4-.7-.1-.9s.5,0,.7,0a.9.9,0,0,0,.5-.1c.2-.1,0-.4-.1-.6-.1-.4-.4-.8,0-1,.1-.2.2-.2.4-.2,1.1.2,1.1-.2,1.1-.2Z" transform="translate(-0.29 -0.28)"/><path class="cls-2" d="M19.3,10h1s.2.7.3,1.2a.66.66,0,0,1,.1.6c-.1.2-.4.2-.6.3A10.42,10.42,0,0,1,19,12a2.75,2.75,0,0,1,.8,1.1c0,.2.1.5,0,.6-.6.5-2,.2-2,.2a3.21,3.21,0,0,1,.7,1,3.4,3.4,0,0,1,.1,1c-.3.1-.4.2-.7.3a3.4,3.4,0,0,1-1,.1,2.7,2.7,0,0,1,.7.8,2.1,2.1,0,0,1,.4,1.1,1.72,1.72,0,0,1-.7.4c-.7-.3-1.2-.3-1.6-.5,0,0,.8-.3.8-.7s-.3-.6-.4-1-.3-.6-.1-.9.3-.1.4-.2a2.88,2.88,0,0,1,.6-.4l-.2-1.1c-.1-.4-.4-.7-.1-.9s.5,0,.7,0a.9.9,0,0,0,.5-.1c.2-.1,0-.4-.1-.6-.1-.4-.4-.8,0-1,.1-.2.2-.2.4-.2,1.1.2,1.1-.2,1.1-.2Z" transform="translate(-0.29 -0.28)"/><path class="cls-3" d="M30.8,25.4a.91.91,0,0,1,.4-.8,1.37,1.37,0,0,1,1.1-.4c.3,0,.6-.1.9.2a1,1,0,0,1,.4.7,1.4,1.4,0,0,1-.3.9,1.33,1.33,0,0,1-1,.6l-.8-.6Z" transform="translate(-0.29 -0.28)"/><path class="cls-2" d="M30.8,25.4a.91.91,0,0,1,.4-.8,1.37,1.37,0,0,1,1.1-.4c.3,0,.6-.1.9.2a1,1,0,0,1,.4.7,1.4,1.4,0,0,1-.3.9,1.33,1.33,0,0,1-1,.6l-.8-.6Z" transform="translate(-0.29 -0.28)"/><path class="cls-3" d="M25,21.6l1,.7a9.29,9.29,0,0,1,.5-1,4.89,4.89,0,0,1,1.3-1.2,5.55,5.55,0,0,1,.8-.6l-1.4-1.3a2,2,0,0,1-.2,1.3,2.84,2.84,0,0,1-.8,1.1,6.34,6.34,0,0,1-1.2,1" transform="translate(-0.29 -0.28)"/><path class="cls-2" d="M25,21.6l1,.7a9.29,9.29,0,0,1,.5-1,4.89,4.89,0,0,1,1.3-1.2,5.55,5.55,0,0,1,.8-.6l-1.4-1.3a2,2,0,0,1-.2,1.3,2.84,2.84,0,0,1-.8,1.1A6.34,6.34,0,0,1,25,21.6Z" transform="translate(-0.29 -0.28)"/><path class="cls-4" d="M22.6,20.3l1.9,1.1.1-.5a2.66,2.66,0,0,1,.6-1c.3-.4.7-.5.9-1a2,2,0,0,0,.2-1.1A1.33,1.33,0,0,0,26,17c-.2-.3-.6-.2-1-.1a2.1,2.1,0,0,0-1.1.4,2.58,2.58,0,0,0-.9.9,5,5,0,0,0-.5,1.3c0,.3.1.5.1.8" transform="translate(-0.29 -0.28)"/><path class="cls-4" d="M27.1,22.9l1.2.8,1.3.9.1-.4c.2-.2.3-.4.5-.5a1.76,1.76,0,0,1,.5-.4.64.64,0,0,1,.6,0l-.1-.6-.4-.9a1.39,1.39,0,0,0-.8-.7c-.4-.2-.6-.4-1-.4a1.49,1.49,0,0,0-.9.4,2,2,0,0,0-.7.6,2.61,2.61,0,0,0-.3.8v.4" transform="translate(-0.29 -0.28)"/><path class="cls-3" d="M9.6,25.2a2.22,2.22,0,0,0-.8-1.4.19.19,0,0,1,.3-.1c2.1.3,4.7.5,4.7,1.9a.9.9,0,0,1-.1.5.75.75,0,0,1-.7.4,9.08,9.08,0,0,1-4.4-.2c0-.2,1-.3,1-1.1" transform="translate(-0.29 -0.28)"/><path class="cls-2" d="M9.6,25.2a2.22,2.22,0,0,0-.8-1.4.19.19,0,0,1,.3-.1c2.1.3,4.7.5,4.7,1.9a.9.9,0,0,1-.1.5.75.75,0,0,1-.7.4,9.08,9.08,0,0,1-4.4-.2C8.6,26.1,9.6,26,9.6,25.2Z" transform="translate(-0.29 -0.28)"/><path class="cls-3" d="M7.8,27l2.5.2c.9.2,2.6,0,2.6,1.3,0,1-1.4,1.1-1.9,1.1a26.66,26.66,0,0,1-3.2,0c-.1,0,1.1-.5,1.1-1.2S8,27.3,7.8,27" transform="translate(-0.29 -0.28)"/><path class="cls-2" d="M7.8,27l2.5.2c.9.2,2.6,0,2.6,1.3,0,1-1.4,1.1-1.9,1.1a26.66,26.66,0,0,1-3.2,0c-.1,0,1.1-.5,1.1-1.2S8,27.3,7.8,27Z" transform="translate(-0.29 -0.28)"/><path class="cls-3" d="M7.6,30.3a21.78,21.78,0,0,1,3.5-.2c1,.1,2,.3,2.2,1,.2,1.1-1.7,1.5-2.6,1.7a23.87,23.87,0,0,0-2.4.2s.9-.8.6-1.5-1.3-1.2-1.3-1.2" transform="translate(-0.29 -0.28)"/><path class="cls-2" d="M7.6,30.3a21.78,21.78,0,0,1,3.5-.2c1,.1,2,.3,2.2,1,.2,1.1-1.7,1.5-2.6,1.7a23.87,23.87,0,0,0-2.4.2s.9-.8.6-1.5S7.6,30.3,7.6,30.3Z" transform="translate(-0.29 -0.28)"/><path class="cls-3" d="M9,34a10.45,10.45,0,0,1,4.6-.8c1.9.3,2.4.5,2.5,1.4.2,1.1-1.8,2.2-3,2.4s-2.3.5-2.3.5a2.25,2.25,0,0,0,.4-2.1C11.1,34.4,9,34,9,34" transform="translate(-0.29 -0.28)"/><path class="cls-2" d="M9,34a10.45,10.45,0,0,1,4.6-.8c1.9.3,2.4.5,2.5,1.4.2,1.1-1.8,2.2-3,2.4s-2.3.5-2.3.5a2.25,2.25,0,0,0,.4-2.1C11.1,34.4,9,34,9,34Z" transform="translate(-0.29 -0.28)"/><path class="cls-3" d="M12.5,38a4.26,4.26,0,0,1,2.3-.7c.7-.1,2.6-.7,3.1.2.7,1.4-3.3,3.4-3.6,3.2s.6-.7,0-1.7-1.9-.7-1.8-1" transform="translate(-0.29 -0.28)"/><path class="cls-2" d="M12.5,38a4.26,4.26,0,0,1,2.3-.7c.7-.1,2.6-.7,3.1.2.7,1.4-3.3,3.4-3.6,3.2s.6-.7,0-1.7S12.4,38.3,12.5,38Z" transform="translate(-0.29 -0.28)"/><path class="cls-3" d="M12.6,21.6a1.35,1.35,0,0,1,.1,1,1.8,1.8,0,0,1-.7.9,19.59,19.59,0,0,0,3,.9c1,.2,1.8.3,2.2-.4.2-.4-.4-.9-1-1.3s-3.6-1.1-3.6-1.1" transform="translate(-0.29 -0.28)"/><path class="cls-2" d="M12.6,21.6a1.35,1.35,0,0,1,.1,1,1.8,1.8,0,0,1-.7.9,19.59,19.59,0,0,0,3,.9c1,.2,1.8.3,2.2-.4.2-.4-.4-.9-1-1.3S12.6,21.6,12.6,21.6Z" transform="translate(-0.29 -0.28)"/><path class="cls-3" d="M18.5,23.8a14.72,14.72,0,0,1,4.2,1.6,1.17,1.17,0,0,1,.4,1.4c-.2.3-.9,0-1.2-.1-1.8-.5-2.6-1.1-3.9-1.5a1.05,1.05,0,0,1-.4-1,1.09,1.09,0,0,1,.9-.4" transform="translate(-0.29 -0.28)"/><path class="cls-2" d="M18.5,23.8a14.72,14.72,0,0,1,4.2,1.6,1.17,1.17,0,0,1,.4,1.4c-.2.3-.9,0-1.2-.1-1.8-.5-2.6-1.1-3.9-1.5a1.05,1.05,0,0,1-.4-1A1.09,1.09,0,0,1,18.5,23.8Z" transform="translate(-0.29 -0.28)"/><path class="cls-3" d="M19,26.6a5.46,5.46,0,0,0-2.5-.9,4.57,4.57,0,0,0-1.6-.1.7.7,0,0,0-.4,1c.5.6,1.1.6,1.9.8a5.44,5.44,0,0,0,2.3.3.68.68,0,0,0,.3-1.1" transform="translate(-0.29 -0.28)"/><path class="cls-2" d="M19,26.6a5.46,5.46,0,0,0-2.5-.9,4.57,4.57,0,0,0-1.6-.1.7.7,0,0,0-.4,1c.5.6,1.1.6,1.9.8a5.44,5.44,0,0,0,2.3.3A.68.68,0,0,0,19,26.6Z" transform="translate(-0.29 -0.28)"/><path class="cls-3" d="M18,28.3a4,4,0,0,0-2.4-.6,7.12,7.12,0,0,0-1.6.1c-.4.1-.7.8-.4,1.1a3.34,3.34,0,0,0,2.1.8,5.92,5.92,0,0,0,2.2-.2c.3-.3.6-.7.1-1.2" transform="translate(-0.29 -0.28)"/><path class="cls-2" d="M18,28.3a4,4,0,0,0-2.4-.6,7.12,7.12,0,0,0-1.6.1c-.4.1-.7.8-.4,1.1a3.34,3.34,0,0,0,2.1.8,5.92,5.92,0,0,0,2.2-.2C18.2,29.2,18.5,28.8,18,28.3Z" transform="translate(-0.29 -0.28)"/><path class="cls-3" d="M18,30.7a3.28,3.28,0,0,0-2.1-.5,7.12,7.12,0,0,0-1.6.1c-.4.1-.7.8-.4,1.1a3.34,3.34,0,0,0,2.1.8,3.69,3.69,0,0,0,2.1-.4.8.8,0,0,0-.1-1.1" transform="translate(-0.29 -0.28)"/><path class="cls-2" d="M18,30.7a3.28,3.28,0,0,0-2.1-.5,7.12,7.12,0,0,0-1.6.1c-.4.1-.7.8-.4,1.1a3.34,3.34,0,0,0,2.1.8,3.69,3.69,0,0,0,2.1-.4A.8.8,0,0,0,18,30.7Z" transform="translate(-0.29 -0.28)"/><path class="cls-3" d="M18.9,32.6a3.08,3.08,0,0,0-2.1.4,1.42,1.42,0,0,0-.4,1.1c0,.2.4.6.6.7a2,2,0,0,0,2.3-.3c.1-.1-.5-.4-.6-.7-.2-.7.4-1.2.2-1.2" transform="translate(-0.29 -0.28)"/><path class="cls-2" d="M18.9,32.6a3.08,3.08,0,0,0-2.1.4,1.42,1.42,0,0,0-.4,1.1c0,.2.4.6.6.7a2,2,0,0,0,2.3-.3c.1-.1-.5-.4-.6-.7C18.5,33.1,19.1,32.6,18.9,32.6Z" transform="translate(-0.29 -0.28)"/><path class="cls-3" d="M19.8,35.9c-.6-.1-1.8,0-1.5,1.4a1.16,1.16,0,0,0,.5.7,1.2,1.2,0,0,0,1.7-.5c.1-.1-.6-.3-.7-.6-.3-.6.3-1,0-1" transform="translate(-0.29 -0.28)"/><path class="cls-2" d="M19.8,35.9c-.6-.1-1.8,0-1.5,1.4a1.16,1.16,0,0,0,.5.7,1.2,1.2,0,0,0,1.7-.5c.1-.1-.6-.3-.7-.6C19.5,36.3,20.1,35.9,19.8,35.9Z" transform="translate(-0.29 -0.28)"/><path class="cls-3" d="M20,38.8s.5-.5.8-.4c.9.1.7.2,1,.6s.4,1.1.2,1.3l-.6.4c-.4.3-1-.1-1.3-.6a1.24,1.24,0,0,1-.1-1.3" transform="translate(-0.29 -0.28)"/><path class="cls-2" d="M20,38.8s.5-.5.8-.4c.9.1.7.2,1,.6s.4,1.1.2,1.3l-.6.4c-.4.3-1-.1-1.3-.6A1.24,1.24,0,0,1,20,38.8Z" transform="translate(-0.29 -0.28)"/><path class="cls-3" d="M27.1,33s1.2-.6,1.3-1.5A2.09,2.09,0,0,0,27,29.3a2.05,2.05,0,0,0-2.6,1.3,3.31,3.31,0,0,0,.6,2l-.7.6c0,.2,1.1.5,1.1.5s-.9.8-.8,1.4c.1.8,1.8.9,1.8.9s-.7.9-.7,1.2c.1.7,1.1.4,1.8.1s1.9-1,1.3-1.5c-.3-.3-1.1-.2-1.1-.2s.5-1.8.5-1.3c0,.8-1.1-1.3-1.1-1.3" transform="translate(-0.29 -0.28)"/><path class="cls-2" d="M27.1,33s1.2-.6,1.3-1.5A2.09,2.09,0,0,0,27,29.3a2.05,2.05,0,0,0-2.6,1.3,3.31,3.31,0,0,0,.6,2l-.7.6c0,.2,1.1.5,1.1.5s-.9.8-.8,1.4c.1.8,1.8.9,1.8.9s-.7.9-.7,1.2c.1.7,1.1.4,1.8.1s1.9-1,1.3-1.5c-.3-.3-1.1-.2-1.1-.2s.5-1.8.5-1.3C28.2,35.1,27.1,33,27.1,33Z" transform="translate(-0.29 -0.28)"/><path class="cls-3" d="M31.6,31.7c.2-.1-.2-2.1-1.1-2.2-.6-.1-.8.1-.9.7-.1.4,1.2,1.8,1.8,1.7.1,0,.1-.1.2-.2" transform="translate(-0.29 -0.28)"/><path class="cls-2" d="M31.6,31.7c.2-.1-.2-2.1-1.1-2.2-.6-.1-.8.1-.9.7-.1.4,1.2,1.8,1.8,1.7C31.5,31.9,31.5,31.8,31.6,31.7Z" transform="translate(-0.29 -0.28)"/><path class="cls-3" d="M30.7,32.8A.71.71,0,0,0,30,32c-.4-.1-1,.1-1,.5s.3.6.7.7.9,0,1-.4" transform="translate(-0.29 -0.28)"/><path class="cls-2" d="M30.7,32.8A.71.71,0,0,0,30,32c-.4-.1-1,.1-1,.5s.3.6.7.7S30.6,33.2,30.7,32.8Z" transform="translate(-0.29 -0.28)"/><path class="cls-3" d="M30.8,33.6a2.14,2.14,0,0,1-.8,1.7c-.5.3-1.4-.3-1.1-1.2.1-.3.6.1.8,0s1.1-.6,1.1-.5" transform="translate(-0.29 -0.28)"/><path class="cls-2" d="M30.8,33.6a2.14,2.14,0,0,1-.8,1.7c-.5.3-1.4-.3-1.1-1.2.1-.3.6.1.8,0S30.8,33.5,30.8,33.6Z" transform="translate(-0.29 -0.28)"/><path class="cls-3" d="M21.3,24.1c-1.6-1.1-.6-1.9.8-1.3a11.26,11.26,0,0,1,3.1,1.7c.1.3-.8.7-2,.5a10.14,10.14,0,0,1-1.9-.9" transform="translate(-0.29 -0.28)"/><path class="cls-2" d="M21.3,24.1c-1.6-1.1-.6-1.9.8-1.3a11.26,11.26,0,0,1,3.1,1.7c.1.3-.8.7-2,.5A10.14,10.14,0,0,1,21.3,24.1Z" transform="translate(-0.29 -0.28)"/><path class="cls-4" d="M11.9,21.8a9.74,9.74,0,0,0-4.7-1.6c-3.1-.3-5.8,1.9-2.8,2.2,1.8.2,4.2.4,6.1.7,1.2.2,2.2-.5,1.4-1.3" transform="translate(-0.29 -0.28)"/><path class="cls-4" d="M8.5,24.4c-.6-.5-1-.8-3.1-1.1C1.5,22.6.5,26,2.9,26.2a29.46,29.46,0,0,0,4.2-.1c1.2,0,2.3-.9,1.4-1.7" transform="translate(-0.29 -0.28)"/><path class="cls-4" d="M7.7,27.8c-.5-.6-.4-.6-2.6-.9C.9,26.4.2,29.4,2.4,29.8a6.42,6.42,0,0,0,4.1-.2c1.2-.2,1.8-1.2,1.2-1.8" transform="translate(-0.29 -0.28)"/><path class="cls-4" d="M6.7,30.7a9,9,0,0,0-2.8-.1c-3.8,0-2.8,3.1-1,3.4,1.6.3,2.2,0,3.9-.7a1.36,1.36,0,0,0-.1-2.6" transform="translate(-0.29 -0.28)"/><path class="cls-4" d="M9.4,34.8a10.25,10.25,0,0,0-2.8-.3c-3.9-.1-2.8,3.5-1,3.9a5,5,0,0,0,3.9-.5c1.1-.6,1.2-2.7-.1-3.1" transform="translate(-0.29 -0.28)"/><path class="cls-4" d="M12.8,38.8a8.62,8.62,0,0,0-2.2-.1c-3.1.1-2.1,2.9-.6,3.1a3.92,3.92,0,0,0,3.1-.6,1.38,1.38,0,0,0-.3-2.4" transform="translate(-0.29 -0.28)"/><path class="cls-4" d="M18.9,39.5c-.5-.4-1.2.3-1.9.6-1.1.5-2.6,1.1-2.4,1.9s1.9.7,2.9.3a12.43,12.43,0,0,0,2-.6c.5-.4,0-1.7-.6-2.2" transform="translate(-0.29 -0.28)"/><path class="cls-4" d="M24.7,29a6.58,6.58,0,0,0-3.2-1.3,3,3,0,0,0-2.6,1.7,1.89,1.89,0,0,0,1,2.4c1.2.1,2.6.1,3.5.1.3,0-.6-1-.3-1.8.3-1,.8-1.1,1.6-1.1" transform="translate(-0.29 -0.28)"/><path class="cls-4" d="M23.8,33.8c-1.6.1-2.5.6-3.4.6s-.9-1.6-.3-1.7a6.91,6.91,0,0,1,3.5,0c.2,0-.6.3-.4.5,0,0,.6.4.6.6" transform="translate(-0.29 -0.28)"/><path class="cls-4" d="M24.6,36.2a3.69,3.69,0,0,1-3.1.9c-1-.1-.7-1.5-.2-1.8a3.33,3.33,0,0,1,2.5-.7c.2,0-.4.7-.3,1.1s.9.3,1.1.5" transform="translate(-0.29 -0.28)"/><path class="cls-4" d="M25.9,38.3a3.42,3.42,0,0,1-2.6,1c-.8,0-1-1.1-.4-1.6s.9-.5,2-.8c.1,0-.3.7-.1,1.1s.9.2,1.1.3" transform="translate(-0.29 -0.28)"/><path class="cls-4" d="M29.4,36.6s-2,1.5-3.3,2.4c-1.7,1-4.4,2.5-4.4,2.5a18.38,18.38,0,0,0,4.9-2,29.47,29.47,0,0,0,2.8-2.9" transform="translate(-0.29 -0.28)"/><path class="cls-4" d="M29.6,28.4a1.68,1.68,0,0,0-.3-1.2c-.3-.6-.7-.7-1.2-1.1a5.67,5.67,0,0,0-1.3-.8,1.65,1.65,0,0,0-1.2,0,1.3,1.3,0,0,0-.9,1,1.66,1.66,0,0,0,.5,1.3c.3.6.7.7,1.3,1.1a4.25,4.25,0,0,0,1.2.5,2.21,2.21,0,0,0,1.2,0,1,1,0,0,0,.7-.8" transform="translate(-0.29 -0.28)"/><path class="cls-4" d="M9.9,17.1c0-.5-4.7,0-5.2.4s-.5,1.4.3,1.1a21.42,21.42,0,0,1,4.8-1.3c.1-.1.1,0,.1-.2" transform="translate(-0.29 -0.28)"/><path class="cls-4" d="M5.7,1.7c-.2.5,1.1.8,1.6.8a21.61,21.61,0,0,1,4.2,1l2.8,1c.7.3,1.5.9,1.9.7.2-.1-.1-.4-.4-.5A8.57,8.57,0,0,0,13,3.2a12.75,12.75,0,0,0-2.7-1.1,6.53,6.53,0,0,0-2-.5c-1-.2-2.2-.8-2.6.1" transform="translate(-0.29 -0.28)"/><path class="cls-4" d="M6,2.9a6.88,6.88,0,0,0-2.5.2c-.3.1-.6.1-.8.4-.4.6-.1,1.4,1,1.4A11,11,0,0,1,8,5.3c1.4.3,2.2.9,3.7,1a4.62,4.62,0,0,0,1.7,0c.4-.1-.8-1.3-1.4-1.6-.9-.4-1.1-.6-1.8-.9s-1-.3-1.7-.5A21.66,21.66,0,0,0,6,2.9" transform="translate(-0.29 -0.28)"/><path class="cls-4" d="M2.6,5.6a17.64,17.64,0,0,1,3.2-.1,13.56,13.56,0,0,1,2.9.6,7,7,0,0,1,2,.8,5,5,0,0,1,1.1,1.2c.1.4-.4.4-.7.5-.6.1-.4,0-.7,0-1.2,0-1.8-.2-3-.2a16.6,16.6,0,0,0-2.2-.3,14.19,14.19,0,0,1-2.8-.4c-.5-.6-.7-.5-.7-1A1.4,1.4,0,0,1,2,5.8a1.07,1.07,0,0,1,.6-.2" transform="translate(-0.29 -0.28)"/><path class="cls-4" d="M1.7,9.2c-.1.4.2.6.4.9.5.6,1.3.4,2,.5,1,.1,1.3.1,2.2.2s1.3.1,2.2.2,1.7.3,2.4,0c.3-.1,0-.8-.2-.9-1.1-.6-1-.7-1.5-.8-.9-.3-1.1-.2-1.7-.4a28.86,28.86,0,0,0-3.7-.3c-.5,0-.8-.2-1.3,0s-.8.2-.8.6" transform="translate(-0.29 -0.28)"/><path class="cls-4" d="M2.4,12.4a.87.87,0,0,0,.6.9c.5,0,1.1.3,1.8.4a21.43,21.43,0,0,0,4.6-.1c.2,0,1.2-.4,1.2-.6.1-.4-.4-.8-.6-.9a2.71,2.71,0,0,0-.8-.3,13.73,13.73,0,0,0-2.8-.5,18.3,18.3,0,0,0-3.2-.2c-.5,0-.8.7-.8,1.3" transform="translate(-0.29 -0.28)"/><path class="cls-4" d="M3.2,15.3c0,.5.3,1.1.7,1.1s-.2,0,1.1.1a20.88,20.88,0,0,0,3.6,0,10.55,10.55,0,0,0,1.9-.5,1,1,0,0,0-1-1.4c-1.1-.1-2.2-.3-3.5-.4-.7,0-.7.1-1.8.1a.94.94,0,0,0-1,1" transform="translate(-0.29 -0.28)"/><path class="cls-4" d="M32.7,27c0,.1,1.1.8,1.5,1.6a11.22,11.22,0,0,1,.4,2.2c1-.5,1.2-1.7.5-3.1-.7-1.2-2.2-1.4-2.4-.7" transform="translate(-0.29 -0.28)"/><path class="cls-3" d="M11.5,20.3a8.59,8.59,0,0,1,3.9-.5,10.89,10.89,0,0,1,3.1.8,23.2,23.2,0,0,1,3.6,1.6c1.4.7,2.1,1.2,3.5,2,1,.6,1.6.8,2.6,1.5a10.41,10.41,0,0,1,2.5,2.2,11.91,11.91,0,0,1,.9,1.5,6.94,6.94,0,0,0,.5,1.3c.2.4.1,1,.6,1,.3,0,.5.1.7-.1s.5-.4.5-.7a5.08,5.08,0,0,0-1.7-3.6c-.5-.5-.9-.7-1.5-1.2-1.3-1-2.1-1.4-3.4-2.3a28.17,28.17,0,0,0-3.8-2.1A35.18,35.18,0,0,0,19,19.9c-2.8-.9-1.4-.3-7.3-1.7l-3.3.7a8.77,8.77,0,0,0,3.1,1.4" transform="translate(-0.29 -0.28)"/><path class="cls-2" d="M11.5,20.3a8.59,8.59,0,0,1,3.9-.5,10.89,10.89,0,0,1,3.1.8,23.2,23.2,0,0,1,3.6,1.6c1.4.7,2.1,1.2,3.5,2,1,.6,1.6.8,2.6,1.5a10.41,10.41,0,0,1,2.5,2.2,11.91,11.91,0,0,1,.9,1.5,6.94,6.94,0,0,0,.5,1.3c.2.4.1,1,.6,1,.3,0,.5.1.7-.1s.5-.4.5-.7a5.08,5.08,0,0,0-1.7-3.6c-.5-.5-.9-.7-1.5-1.2-1.3-1-2.1-1.4-3.4-2.3a28.17,28.17,0,0,0-3.8-2.1A35.18,35.18,0,0,0,19,19.9c-2.8-.9-1.4-.3-7.3-1.7l-3.3.7A8.77,8.77,0,0,0,11.5,20.3Z" transform="translate(-0.29 -0.28)"/><path class="cls-4" d="M19.9,21.9a12.69,12.69,0,0,0-5-2.4,25.33,25.33,0,0,0-4.8-.8c-2.8-.2-6.4.8-2.6,1.2A36.41,36.41,0,0,1,13.3,21c2.1.6,3.8,1.5,5.4,1.8,1.2.2,2.1-.1,1.2-.9" transform="translate(-0.29 -0.28)"/><path class="cls-1" d="M28.2,79.8H43.1C55,79.8,57.3,73,57.3,68.4c0-5.8-3.8-8.3-7.4-9.1l.1-.2c6.5-.9,9.3-5,9.3-9.1,0-2.9-1-5.1-3.1-6.5s-5.3-1.9-8.9-1.8H35.5l-.3,1.6,2.9.3c1.1.1,1.4.8,1,2.6l-5.8,29c-.3,1.8-.9,2.5-2.1,2.6l-2.7.3ZM42.9,60.2c4.9,0,9.1,1.5,9.1,7.8,0,4.9-2.6,9.8-9.2,9.8-4.8,0-5-1.4-4.6-3.5L41,60.2Zm-1.5-1.9L44,45.5c.3-1.7.6-1.9,3.9-1.9,4.1,0,6.4,2.3,6.4,6.2a8.48,8.48,0,0,1-2.9,6.5c-1.6,1.4-4.2,2-6.8,2Z" transform="translate(-0.29 -0.28)"/><path class="cls-1" d="M68.6,40.4A3.37,3.37,0,0,0,65.4,44c0,2,1.2,3.1,2.7,3.1,1.9,0,3.1-1.5,3.1-3.7s-1.3-3-2.6-3M59.9,53.7,59.6,55l2.8.3c1.3.1,1.5.6,1,2.5L59.3,75c-.7,3.1-.1,5.4,2.5,5.4,3.5,0,6.3-3.7,7.9-7.9l-1.2-.8c-.9,1.9-3,5.8-4.4,5.8-1,0-.9-1.3-.5-3l5.3-22.1-.2-.3Z" transform="translate(-0.29 -0.28)"/><path class="cls-1" d="M84.5,52.1c-11.6,0-14.4,13.6-14.4,18.3,0,5.9,2.8,10,9,10,5.3,0,8.8-3,11.1-7a24.61,24.61,0,0,0,3.1-11.6c0-7.6-4.8-9.7-8.8-9.7m-.1,2c3,0,4.1,2.4,4.1,5.8,0,3.9-2.5,18.7-9.3,18.7-2.8,0-4.4-1.9-4.4-5.8,0-6.1,3.2-18.7,9.6-18.7" transform="translate(-0.29 -0.28)"/><path class="cls-1" d="M116.3,79.8l2.5-9.7h-1.5c-2.5,6.8-4.7,7.8-10.2,7.8-2.4,0-4.9-.2-5.5-.7-.7-.7-.8-1.5-.2-4.1l5.4-26.8c.4-1.8.9-2.6,2.1-2.8l2.9-.2.3-1.6H98.6l-.3,1.6,2.9.3c1.1.1,1.5.9,1.1,2.7l-5.9,29c-.4,1.9-.9,2.5-2.1,2.6l-2.7.3-.3,1.6Z" transform="translate(-0.29 -0.28)"/><path class="cls-1" d="M139.8,52.6l-.2.7a6,6,0,0,0-3.6-1.2c-11.7,0-17.2,14.5-17.2,21.7,0,3.3,1.4,6.5,4.7,6.5,5.2,0,9.8-6.8,12.6-12.4h.1l-1.7,6.3c-1,3.9-.5,6.2,2.2,6.2,3.7,0,6.5-3.7,8.1-7.9l-1.2-.8c-.9,1.9-3,5.8-4.4,5.8-1,0-.9-1.3-.5-3l5.2-22h-4.1Zm-.8,2.7a49.55,49.55,0,0,1-5.2,13.9c-2.7,4.7-5.7,8.4-8.1,8.4-1.6,0-2.2-1.7-2.2-3.9,0-6.1,4.8-19.7,12.5-19.7a4.39,4.39,0,0,1,3,1.3" transform="translate(-0.29 -0.28)"/><path class="cls-1" d="M156.7,39.2l-.2-.3-8.8,1.3-.3,1.3,2.8.4c1.2.2,1.4.5,1,2.7L144,79.8h1.8l1.5-3.2a6.59,6.59,0,0,0,6.2,3.9c5.7,0,9.9-4.3,12.3-9.1A30,30,0,0,0,169,59.2c0-4.1-1.6-6.9-5.2-6.9s-8.6,3.8-12.3,11.3h-.1Zm7.4,20.4c0,4-2.9,18.9-10.1,18.9-2.5,0-4-2-4-4.7a23.89,23.89,0,0,1,2.6-9.6c2.2-4.4,5.9-9.1,8.9-9.1,1.8-.1,2.6,1.3,2.6,4.5" transform="translate(-0.29 -0.28)"/><path class="cls-1" d="M179.3,52.1c-5,0-7.9,3.6-7.9,8.1,0,2.9,1.8,5.4,4.3,7.7,2.1,1.9,3.4,4.3,3.4,6.4,0,2.6-1.5,4.1-3.5,4.1-1.8,0-3.6-1.7-4.4-4.6-.3-1-.7-1.7-1.6-1.7a2.8,2.8,0,0,0-2.5,3c0,2.4,2.7,5.2,7.3,5.2a8.09,8.09,0,0,0,8.5-8.3c0-3-1.2-5.4-4.5-8.4-2.9-2.7-3.5-4.5-3.5-6.1,0-1.8,1.2-3.6,3-3.6,1.6,0,2.9,1.2,3.9,3.8.3.7.6,1.1,1.4,1.1a2.44,2.44,0,0,0,2.4-2.5c-.1-1.6-2-4.2-6.3-4.2" transform="translate(-0.29 -0.28)"/><path class="cls-1" d="M190,54.3a2.46,2.46,0,0,1,2.4,2.5,2.39,2.39,0,0,1-2.4,2.5,2.46,2.46,0,0,1-2.4-2.5,2.39,2.39,0,0,1,2.4-2.5m0,5.4a2.9,2.9,0,1,0-2.9-2.9,2.9,2.9,0,0,0,2.9,2.9m-.4-4c0-.1,0-.2.4-.2a.53.53,0,0,1,.6.6c0,.4-.3.6-.7.6h-.3Zm.4,2.6v-.2h-.2a.22.22,0,0,1-.2-.2v-1h.3a.76.76,0,0,1,.5.2c.1.2.1.5.2.8s.2.3.6.3h.3v-.1c-.1,0-.2-.1-.3-.1a.76.76,0,0,1-.2-.5c-.1-.4-.1-.6-.6-.8h0c.4-.1.8-.3.8-.8s-.3-.7-1-.7h-1.4v.2h.2a.22.22,0,0,1,.2.2v2.2c0,.1,0,.2-.2.2h-.2v.2H190Z" transform="translate(-0.29 -0.28)"/><path class="cls-1" d="M58.5,23.3l-.1.5.9.1c.4,0,.5.3.3.8L58.2,32a21.78,21.78,0,0,1-.6,2.2,1,1,0,0,1-.9.8h-.5l-.1.5h3.7L60,35l-.6-.1c-.5-.1-.8-.2-.7-.8a10.33,10.33,0,0,1,.3-2.2l1.5-7.2h0c1.5,3.6,2.9,7.1,4.4,10.7h1l1.8-8.7a21.78,21.78,0,0,1,.6-2.2,1,1,0,0,1,.9-.8l.5-.1.1-.5H66l-.1.5.6.1c.5.1.8.2.7.7a10.33,10.33,0,0,1-.3,2.2L65.6,33h-.1c-1.4-3.3-2.7-6.6-4.1-9.9H58.5Z" transform="translate(-0.29 -0.28)"/><path class="cls-1" d="M71.5,23.3l-.1.5,1,.1c.4,0,.5.2.3.8L70.8,34c-.1.6-.3.8-.6.8l-1,.2-.1.5h8.3l.8-3.1h-.5c-.8,2.2-1.5,2.5-3.5,2.5a6.25,6.25,0,0,1-1.8-.2c-.2-.2-.3-.5-.1-1.3l.8-3.9h2.1c1.4,0,1.4.4,1.4,1.5h.5l.7-3.7h-.5c-.4,1.2-.6,1.5-2,1.5H73.2l.9-4.4c.1-.4.2-.5.4-.5h1.9c2,0,2,.7,1.8,2.3h.5l.6-2.9Z" transform="translate(-0.29 -0.28)"/><path class="cls-1" d="M80.7,23.3l-.1.5.7.1c.3,0,.4.2.5.7l.7,10.8h1.1l4.3-9.7H88l.8,9.7H90l2.8-6.3c.9-2,1.7-3.8,2-4.3.4-.8.6-1,1.5-1.1l.1-.5H92.8l-.1.5,1,.1c.3,0,.3.2.1.6-.3.7-.8,2.2-1.8,4.4l-1.9,4.4H90l-.8-9.7H88.1l-4.3,9.7h-.1l-.5-8.9c0-.4.1-.5.3-.6l1-.1.1-.5H80.7Z" transform="translate(-0.29 -0.28)"/><path class="cls-1" d="M101.8,23.3l-.1.5,1,.1c.4,0,.5.2.3.8L101.1,34c-.1.6-.3.8-.6.8l-1,.2-.1.5h8.3l.8-3.1H108c-.8,2.2-1.5,2.5-3.5,2.5a6.25,6.25,0,0,1-1.8-.2c-.2-.2-.3-.5-.1-1.3l.8-3.9h2.1c1.4,0,1.4.4,1.4,1.5h.5l.7-3.7h-.5c-.4,1.2-.6,1.5-2,1.5h-2.1l.9-4.4c.1-.4.2-.5.4-.5h1.9c2,0,1.9.7,1.8,2.3h.5l.6-2.9Z" transform="translate(-0.29 -0.28)"/><path class="cls-1" d="M111.9,23.3l-.1.5.9.1c.4,0,.5.3.3.8l-1.5,7.2a21.78,21.78,0,0,1-.6,2.2,1,1,0,0,1-.9.8l-.5.1-.1.5h3.7l.1-.5-.6-.1c-.5-.1-.8-.2-.7-.8a10.33,10.33,0,0,1,.3-2.2l1.5-7.2h0c1.5,3.6,2.9,7.1,4.4,10.7h1l1.8-8.7a21.78,21.78,0,0,1,.6-2.2,1,1,0,0,1,.9-.8l.5-.1.1-.5h-3.7l-.1.5.6.1c.5.1.8.2.7.7a10.33,10.33,0,0,1-.3,2.2L118.9,33h.1c-1.4-3.3-2.7-6.6-4.1-9.9h-3Z" transform="translate(-0.29 -0.28)"/><path class="cls-1" d="M133.3,23.9a6.87,6.87,0,0,0-3.6-.9,6.32,6.32,0,0,0-5.3,2.5,9.06,9.06,0,0,0-1.5,4.9,5.63,5.63,0,0,0,1.3,4,5.08,5.08,0,0,0,3.7,1.3,9,9,0,0,0,3.4-.7l.7-3.6c.1-.6.2-.9.5-.9l.7-.1.1-.5h-4.2l-.1.5,1.2.1c.3,0,.4.2.3.8l-.6,2.7c-.1.5-.3,1-2,1-1.9,0-3.3-1.4-3.3-4.5,0-2.8,1.3-6.9,5-6.9,2.3,0,2.6,1.5,2.5,3h.5Z" transform="translate(-0.29 -0.28)"/><path class="cls-1" d="M141.5,35.5l.8-3.1h-.5c-.8,2.2-1.5,2.5-3.3,2.5a6.25,6.25,0,0,1-1.8-.2c-.2-.2-.3-.5-.1-1.3l1.8-8.6c.1-.6.3-.8.7-.9l1-.1.1-.5h-4.4l-.1.5.9.1q.6,0,.3.9L135,34c-.1.6-.3.8-.7.8l-.9.1-.1.5h8.2Z" transform="translate(-0.29 -0.28)"/><path class="cls-1" d="M150.5,30.1h-3.2c.8-1.7,1.7-3.5,2.6-5.2h0Zm3,5.4.1-.5-.6-.1c-.5-.1-.6-.3-.6-1l-1.2-10.6H150l-2.7,5.2c-.8,1.6-2.1,4.2-2.7,5.2s-.8,1.1-1.3,1.2l-.5.1-.1.5h3.6l.1-.5-.9-.1c-.3,0-.3-.3-.2-.7.5-1.1,1-2.3,1.6-3.5h3.6l.4,3.4c0,.5-.1.7-.4.7l-.8.1-.1.5h3.9Z" transform="translate(-0.29 -0.28)"/><path class="cls-1" d="M156.6,23.3l-.1.5.9.1c.4,0,.5.3.4.8l-1.5,7.2a21.78,21.78,0,0,1-.6,2.2,1,1,0,0,1-.9.8l-.5.1-.1.5h3.7l.1-.5-.6-.1c-.5-.1-.8-.2-.7-.8a10.33,10.33,0,0,1,.3-2.2l1.5-7.2h0c1.5,3.6,3,7.1,4.4,10.7h1l1.8-8.7a21.78,21.78,0,0,1,.6-2.2,1,1,0,0,1,.9-.8l.5-.1.1-.5h-3.7l-.1.5.6.1c.5.1.8.2.7.7a10.33,10.33,0,0,1-.3,2.2L163.7,33h-.1c-1.4-3.3-2.7-6.6-4.1-9.9h-2.9Z" transform="translate(-0.29 -0.28)"/><path class="cls-1" d="M166.7,35.5h4.9a6.67,6.67,0,0,0,6.2-3.2,7.9,7.9,0,0,0,1.1-4.1,5.31,5.31,0,0,0-1.4-3.7,5.62,5.62,0,0,0-4.1-1.3H169l-.1.5.9.1c.4,0,.4.3.3.9L168.2,34c-.1.6-.3.8-.6.8l-.9.1Zm6.8-11.6c3.3.1,3.6,2.5,3.6,3.9a9.07,9.07,0,0,1-1,4.3c-.9,1.7-2.3,2.7-4.9,2.7-.9,0-1.5-.1-1.3-.9l1.9-9.4c.1-.5.3-.6,1.7-.6" transform="translate(-0.29 -0.28)"/><path class="cls-1" d="M189.7,79.5l.1-.4L189,79c-.3,0-.4-.3-.3-.7l1.6-7.8c.1-.5.2-.7.6-.7l.7-.1.1-.4H188l-.1.4.8.1c.3,0,.4.3.3.7l-1.6,7.8c-.1.5-.2.7-.6.7l-.7.1-.1.4Z" transform="translate(-0.29 -0.28)"/><path class="cls-1" d="M192.5,79.5a27.06,27.06,0,0,1,1-3.3c.5-1.3,1.8-3.5,2.9-3.5.5,0,.6.5.4,1.1l-1.2,4.4c-.2.8,0,1.5.7,1.5,1,0,1.8-1,2.2-2.1l-.3-.2c-.2.5-.8,1.6-1.2,1.6s-.3-.3-.1-.8l1-3.9c.3-1.2.1-2.2-1-2.2-1.3,0-2.7,1.6-3.5,3.3h0l.9-3.3-.1-.1-2.5.4-.1.4.8.1c.3,0,.3.2.2.7l-1.4,6.1Z" transform="translate(-0.29 -0.28)"/><path class="cls-1" d="M204.2,77.2c-.5.7-1.3,1.7-2.1,1.7-1,0-1.2-.9-1.2-2,0-1.9,1-4.5,2.2-4.5.4,0,.7.3.8,1.2,0,.3.1.4.4.4s.9-.3.9-.8c0-.8-.7-1.3-1.7-1.3-2.4,0-3.9,2.8-3.9,5.3,0,1.8,1,2.4,1.9,2.4s2.1-.5,3.1-2.2Z" transform="translate(-0.29 -0.28)"/><path class="cls-1" d="M206.9,79.6a.92.92,0,0,0,.9-1,.79.79,0,0,0-.8-.8.92.92,0,0,0-.9,1,.74.74,0,0,0,.8.8" transform="translate(-0.29 -0.28)"/><path class="cls-5" d="M260.8,27.5c.3-1,.5-2.1.6-2.6h-1l.1-.3a6,6,0,0,0,1.9-.6h.5c-.2.6-.6,2.3-.6,2.4l-1,4.1c1.4-1.4,2.1-1.9,2.9-1.9,1,0,1.3,1,1.3,1.6,0,2.6-2.6,5.8-5.1,5.8a1,1,0,0,1-1.1-1.1,13.09,13.09,0,0,1,.6-2.9Zm-.6,7.1c0,.6.3.8.8.8,1.5,0,3-2.7,3-4.7,0-.7-.4-.9-.7-.9-.7,0-1.9,1.3-2.4,1.8A12,12,0,0,0,260.2,34.6Z" transform="translate(-0.29 -0.28)"/><path class="cls-5" d="M270.1,34.6a3.47,3.47,0,0,1-2.4,1.5c-1.3,0-1.6-1.5-1.6-2.3,0-2.1,1.4-5.1,3.8-5.1a1.06,1.06,0,0,1,1.2,1c0,1.4-2.5,2.3-3.6,2.6a3.26,3.26,0,0,0-.2,1.2c0,1.6.9,1.6,1,1.6a2.75,2.75,0,0,0,1.5-.8Zm0-4.9c0-.4-.2-.5-.5-.5s-1.2.3-1.9,2.4C268.3,31.4,270.1,30.8,270.1,29.7Z" transform="translate(-0.29 -0.28)"/><path class="cls-5" d="M280,35.9v-13h1.1v13Z" transform="translate(-0.29 -0.28)"/><path class="cls-5" d="M290.2,34h0V22.8h1.1v13H290l-4.8-11.1h0V35.8H284v-13h1.4Z" transform="translate(-0.29 -0.28)"/><path class="cls-5" d="M297.6,28.8c1.9.8,3.3,1.4,3.3,3.7a3.52,3.52,0,0,1-3.7,3.7c-2.4,0-3.6-1.7-3.6-4h1.1c0,1.6.7,3,2.4,3a2.42,2.42,0,0,0,2.6-2.6c0-2-1.4-2.3-2.9-2.9-1.8-.7-3-1.5-3-3.6a3.31,3.31,0,0,1,3.4-3.6,3.15,3.15,0,0,1,3.3,3.5h-1.1a2.11,2.11,0,0,0-2.2-2.4c-1.5,0-2.2,1.1-2.2,2.5a2.08,2.08,0,0,0,1.6,2.3Z" transform="translate(-0.29 -0.28)"/><path class="cls-5" d="M303.4,35.9v-13h2.3c2.9,0,4.4.7,4.4,3.4a3.3,3.3,0,0,1-1.1,2.8,5,5,0,0,1-2.8.9h-1.7v5.9Zm1.1-6.9h1c2,0,3.5-.3,3.5-2.6,0-2-1-2.5-2.8-2.5h-1.6V29Z" transform="translate(-0.29 -0.28)"/><path class="cls-5" d="M312.5,35.9v-13h1.1v13Z" transform="translate(-0.29 -0.28)"/><path class="cls-5" d="M317.7,29.7v6.1h-1.1v-13h2.5c2.4,0,4,.7,4,3.3,0,1.3-.5,2.8-1.9,3.1h0c1.5.4,1.7,1.5,1.7,3.2,0,.6-.1,2.9.6,3.3v.2h-1.2a13,13,0,0,1-.5-4.3c-.1-1.7-1.4-1.9-2.9-1.9Zm0-1h2a2.22,2.22,0,0,0,2.3-2.5c0-1.9-.9-2.4-2.6-2.4h-1.6v4.9Z" transform="translate(-0.29 -0.28)"/><path class="cls-5" d="M325.7,35.9v-13h5.9v1h-4.8v4.7h4.3v1h-4.3v5.3h4.9v1Z" transform="translate(-0.29 -0.28)"/><path class="cls-5" d="M333.9,22.8h2.3c1.5,0,2.8.1,3.9,1.2a7.19,7.19,0,0,1,1.2,4.3,15.39,15.39,0,0,1-.5,4.8c-.8,2.2-2.2,2.7-4.4,2.7h-2.6v-13Zm1.2,12h1.4a4.65,4.65,0,0,0,2-.3c1.7-.8,1.8-3.7,1.8-5.2s0-4.3-1.7-5.2a5.24,5.24,0,0,0-2.5-.3h-1v11Z" transform="translate(-0.29 -0.28)"/><path class="cls-5" d="M247.8,47.5c.1-.4.1-.5.2-.8a1.91,1.91,0,0,0-1,.1l.1-.4a12.12,12.12,0,0,0,2-.7h.3c-.1.4-.5,1.6-.8,2.9l-1.2,4.8a14.56,14.56,0,0,0-.5,2.7c0,.3.1.5.3.5s.7-.4,1-.6v.5c-.3.3-1.2,1.4-1.9,1.4-.5,0-.6-.7-.6-1.1s.1-.7.1-1c-.9,1.1-1.6,2.1-2.7,2.1-.5,0-1.4-.3-1.4-2,0-2.8,1.9-5.5,4-5.5a2.45,2.45,0,0,1,1.2.4Zm-2.5,3.6c-1.3,0-2.5,2.6-2.5,4.4,0,.7.3,1.3.9,1.3s1.8-1.3,2.3-2.2c.1-.6.5-2.1.6-2.7C246.2,51.4,245.9,51.1,245.3,51.1Z" transform="translate(-0.29 -0.28)"/><path class="cls-5" d="M249.5,51.7c.2-.2.3-.2,1-.9a1.61,1.61,0,0,1,.7-.4c.5,0,.5.6.5.8a7.37,7.37,0,0,1-.5,2.5,20.14,20.14,0,0,1,1.5-2.6c.2-.2.6-.8,1.1-.8a.81.81,0,0,1,.8.9c0,.6-.3,1.4-.8,1.4a.32.32,0,0,1-.3-.3V52c0-.2-.1-.3-.2-.3-.7,0-2.2,2.5-2.9,5.6a1.58,1.58,0,0,0-.9.6H249a29.23,29.23,0,0,0,1.6-5.8s0-.3-.2-.3a2.84,2.84,0,0,0-1,.6Z" transform="translate(-0.29 -0.28)"/><path class="cls-5" d="M255.3,52c.4-.4,1.6-1.7,2.4-1.7a.37.37,0,0,1,.4.4,4.09,4.09,0,0,1-.4,1.5l-1.1,3.2a6.15,6.15,0,0,0-.3,1.1.22.22,0,0,0,.2.2c.1,0,.2-.1.3-.1a5,5,0,0,1,.8-.7l.1.5c-.8.8-1.5,1.4-2.1,1.4a.58.58,0,0,1-.6-.6,3.77,3.77,0,0,1,.4-1.4l1-3a1.72,1.72,0,0,0,.2-.8.22.22,0,0,0-.2-.2,1.22,1.22,0,0,0-.9.6Zm3.8-4.6a.7.7,0,1,1-.7-.7A.75.75,0,0,1,259.1,47.4Z" transform="translate(-0.29 -0.28)"/><path class="cls-5" d="M258.5,52.4c.5-.7,1.5-2.1,2.4-2.1.6,0,1.2.6,1.2,1.7a19.55,19.55,0,0,1-1,4.6c2.2-1.3,3.3-2.8,3.3-4a2.91,2.91,0,0,0-.3-1.4c0-.1-.1-.2-.1-.4a.56.56,0,0,1,.6-.5c.8,0,.8,1.4.8,1.5,0,1.7-1.3,3.6-3.3,4.8a6.88,6.88,0,0,0-1.6,1.2l-.6.1a31.51,31.51,0,0,0,1.1-5.5c0-.5-.2-1.1-.7-1.1-.2,0-.3,0-.6.3a3.55,3.55,0,0,0-.9,1.1Z" transform="translate(-0.29 -0.28)"/><path class="cls-5" d="M270.1,56.3a3.47,3.47,0,0,1-2.4,1.5c-1.3,0-1.6-1.5-1.6-2.3,0-2.1,1.4-5.1,3.8-5.1a1.06,1.06,0,0,1,1.2,1c0,1.4-2.5,2.3-3.6,2.6a3.26,3.26,0,0,0-.2,1.2c0,1.6.9,1.6,1,1.6a2.75,2.75,0,0,0,1.5-.8Zm0-4.9c0-.4-.2-.5-.5-.5s-1.2.3-1.9,2.4C268.3,53.1,270.1,52.5,270.1,51.4Z" transform="translate(-0.29 -0.28)"/><path class="cls-5" d="M279.9,44.5h2.3c1.5,0,2.8.1,3.9,1.2a7.19,7.19,0,0,1,1.2,4.3,15.39,15.39,0,0,1-.5,4.8c-.8,2.2-2.2,2.7-4.4,2.7h-2.6v-13Zm1.1,12h1.4a4.65,4.65,0,0,0,2-.3c1.7-.8,1.8-3.7,1.8-5.2s0-4.2-1.7-5.2a5.24,5.24,0,0,0-2.5-.3h-1v11Z" transform="translate(-0.29 -0.28)"/><path class="cls-5" d="M290.1,57.5v-13h1.1v13Z" transform="translate(-0.29 -0.28)"/><path class="cls-5" d="M297.6,50.4c1.9.8,3.3,1.4,3.3,3.7a3.52,3.52,0,0,1-3.7,3.7c-2.4,0-3.6-1.7-3.6-4h1.1c0,1.6.7,3,2.4,3a2.42,2.42,0,0,0,2.6-2.6c0-2-1.4-2.3-2.9-2.9-1.8-.7-3-1.5-3-3.6a3.31,3.31,0,0,1,3.4-3.6,3.15,3.15,0,0,1,3.3,3.5h-1.1a2.11,2.11,0,0,0-2.2-2.4c-1.5,0-2.2,1.1-2.2,2.5a2.08,2.08,0,0,0,1.6,2.3Z" transform="translate(-0.29 -0.28)"/><path class="cls-5" d="M310.6,53.1c.1,2.2-1.1,4.7-3.7,4.7-3.8,0-3.8-4.4-3.8-7.2s.3-6.5,3.8-6.5c2.3,0,3.5,1.9,3.5,4.1h-1.1c-.1-1.5-.7-3.1-2.4-3.1-2.7,0-2.6,4-2.6,5.7,0,2-.1,5.9,2.8,5.9,1.9,0,2.4-2.1,2.4-3.7h1.1Z" transform="translate(-0.29 -0.28)"/><path class="cls-5" d="M313.1,50.7c0-2.7.4-6.5,3.8-6.5,3.8,0,3.8,4.3,3.8,7.1s-.2,6.5-3.9,6.5S313.1,53.4,313.1,50.7Zm6.6.4c0-1.9,0-5.8-2.8-5.8-2.6,0-2.6,3.8-2.6,5.7s-.1,5.9,2.8,5.9C319.8,56.8,319.7,52.9,319.7,51.1Z" transform="translate(-0.29 -0.28)"/><path class="cls-5" d="M322.5,44.5h1.2L326.6,56h0l3-11.5h1.1l-3.5,13h-1.3Z" transform="translate(-0.29 -0.28)"/><path class="cls-5" d="M332.5,57.5v-13h5.9v1h-4.8v4.7h4.3v1h-4.3v5.3h4.9v1Z" transform="translate(-0.29 -0.28)"/><path class="cls-5" d="M341.7,51.4v6.1h-1.1v-13h2.5c2.4,0,4,.7,4,3.3,0,1.3-.5,2.8-1.9,3.1h0c1.5.4,1.7,1.5,1.7,3.2,0,.6-.1,2.9.6,3.3v.2h-1.2a13,13,0,0,1-.5-4.3c-.1-1.7-1.4-1.9-2.9-1.9Zm0-1h2a2.22,2.22,0,0,0,2.3-2.5c0-1.9-.9-2.4-2.6-2.4h-1.6v4.9Z" transform="translate(-0.29 -0.28)"/><path class="cls-5" d="M355.7,44.5h1.2L353.4,52v5.5h-1.1V52l-3.4-7.5h1.2l2.7,6.2Z" transform="translate(-0.29 -0.28)"/><path class="cls-5" d="M253.2,72.9a.65.65,0,0,1-.6.6c-.5,0-1-.7-1.5-.7a.53.53,0,0,0-.6.6,4,4,0,0,0,.7,1.5A4.85,4.85,0,0,1,252,77a2.79,2.79,0,0,1-2.7,2.5c-.5,0-1.3-.2-1.3-.8a.58.58,0,0,1,.6-.6c.4,0,.8.6,1.5.6a1.07,1.07,0,0,0,1-1,4.76,4.76,0,0,0-.8-1.8,3.37,3.37,0,0,1-.7-1.9,2.17,2.17,0,0,1,2.3-2C253.1,72,253.2,72.6,253.2,72.9Z" transform="translate(-0.29 -0.28)"/><path class="cls-5" d="M253.9,72.8l.1-.4c.8,0,1.6-.3,2.3-1.9h.5l-.5,1.7h1.6l-.1.5h-1.7l-.7,2.5a12.22,12.22,0,0,0-.6,2.7c0,.3.2.4.3.4a6.12,6.12,0,0,0,1.3-.6v.4c-1.4,1.2-2.1,1.4-2.4,1.4a.67.67,0,0,1-.6-.7,8.42,8.42,0,0,1,.5-2.3l1-3.6h-1Z" transform="translate(-0.29 -0.28)"/><path class="cls-5" d="M263.9,71.5a33.85,33.85,0,0,0-1.5,4.5,5.94,5.94,0,0,0-.3,1.8c0,.1,0,.5.3.5s.6-.3,1.1-.8l.2.4c-.8,1-1.6,1.7-2.1,1.7s-.6-1-.6-1.2a2,2,0,0,1,.1-.8c-.7.9-1.7,2.1-2.7,2.1-.5,0-1-.5-1-1.6,0-2.3,2.3-5.3,5.1-5.4l.3-.9Zm-5.5,5.8c0,1,.5,1,.6,1,.8,0,1.9-1.2,2.2-1.6.1-.7.7-2.6.8-3A3.41,3.41,0,0,0,258.4,77.3Z" transform="translate(-0.29 -0.28)"/><path class="cls-5" d="M264.3,74.7c.8-2.3,1.3-2.6,1.9-2.6s1.1.6,1.4,1.4a20.29,20.29,0,0,1,.6,5,11.09,11.09,0,0,0,1.4-4.1,3.36,3.36,0,0,0-.3-1.4v-.2a.58.58,0,0,1,.6-.6c.5,0,.7.6.7,1.2a12.44,12.44,0,0,1-3.1,7.2c-.6.8-2.9,3.2-5,3.2-.2,0-1,0-1-.6a.65.65,0,0,1,.6-.6,2.14,2.14,0,0,1,.6.1,1.49,1.49,0,0,0,.6.1c1.5,0,3.2-1.7,4.2-3.1-.1-3-.6-6.5-1.4-6.5-.5,0-1,1.1-1.3,1.8Z" transform="translate(-0.29 -0.28)"/><path class="cls-5" d="M283.1,73.8v-1H287v6.5h-.9L286,78h0a2.91,2.91,0,0,1-2.8,1.6c-3.7,0-3.7-4.4-3.7-7.1s.2-6.6,3.9-6.6c2.2,0,3.5,1.8,3.5,3.9h-1.1c-.2-1.4-.7-2.9-2.4-2.9-2.9,0-2.8,4-2.8,5.8s0,5.8,2.7,5.8c2.5,0,2.6-2.9,2.7-4.8h-2.9Z" transform="translate(-0.29 -0.28)"/><path class="cls-5" d="M289.9,79.2v-13h5.9v1H291v4.7h4.3v1H291v5.3h4.9v1Z" transform="translate(-0.29 -0.28)"/><path class="cls-5" d="M304.2,77.4h0V66.2h1.1v13H304l-4.8-11.1h0V79.2H298v-13h1.4Z" transform="translate(-0.29 -0.28)"/><path class="cls-5" d="M308.2,66.2h1.1v9.4c0,1.8.4,2.9,2.4,2.9s2.5-1.2,2.5-3V66.2h1.1v9.1c0,2.5-.8,4.3-3.6,4.3-2.5,0-3.5-1.4-3.5-3.7Z" transform="translate(-0.29 -0.28)"/><path class="cls-5" d="M318.4,79.2v-13h1.1v13Z" transform="translate(-0.29 -0.28)"/><path class="cls-5" d="M328.6,77.4h0V66.2h1.1v13h-1.4l-4.8-11.1h0V79.2h-1.1v-13h1.4Z" transform="translate(-0.29 -0.28)"/><path class="cls-5" d="M332.5,79.2v-13h5.9v1h-4.8v4.7h4.3v1h-4.3v5.3h4.9v1Z" transform="translate(-0.29 -0.28)"/><line class="cls-6" x1="227.21" y1="19.52" x2="227.21" y2="83.82"/></svg>