<?xml version="1.0" encoding="utf-8"?>
<!-- Generator: Adobe Illustrator 24.0.1, SVG Export Plug-In . SVG Version: 6.00 Build 0)  -->
<svg version="1.1" id="Layer_1" xmlns="http://www.w3.org/2000/svg" xmlns:xlink="http://www.w3.org/1999/xlink" x="0px" y="0px"
	 viewBox="0 0 200 200" style="enable-background:new 0 0 200 200;" xml:space="preserve">
<style type="text/css">
	.st0{fill:#9D9FA2;}
</style>
<path class="st0" d="M110.5,126.3H87.9c-0.1-3.3-0.1-5.2-0.1-5.9c0-7.3,1.2-13.4,3.6-18.1s7.3-10,14.5-15.9
	c7.3-5.9,11.6-9.8,13-11.6c2.2-2.9,3.3-6.1,3.3-9.6c0-4.8-1.9-9-5.8-12.4c-3.9-3.5-9.1-5.2-15.6-5.2c-6.3,0-11.6,1.8-15.9,5.4
	s-7.2,9.1-8.8,16.5l-22.9-2.8C54,56,58.5,47.1,66.9,39.7c8.4-7.4,19.3-11.1,32.9-11.1c14.3,0,25.7,3.7,34.1,11.2
	c8.4,7.5,12.7,16.2,12.7,26.1c0,5.5-1.6,10.7-4.6,15.6c-3.1,4.9-9.7,11.6-19.9,20c-5.3,4.4-8.5,7.9-9.8,10.5
	C111,114.7,110.4,119.5,110.5,126.3z M87.9,170.4v-24.9h24.9v24.9H87.9z"/>
</svg>
