<?xml version="1.0" encoding="utf-8"?>
<!-- Generator: Adobe Illustrator 24.0.1, SVG Export Plug-In . SVG Version: 6.00 Build 0)  -->
<svg version="1.1" id="Layer_1" xmlns="http://www.w3.org/2000/svg" xmlns:xlink="http://www.w3.org/1999/xlink" x="0px" y="0px"
	 viewBox="0 0 200 200" style="enable-background:new 0 0 200 200;" xml:space="preserve">
<style type="text/css">
	.st0{fill:#9D9FA2;}
</style>
<g>
	<path class="st0" d="M180.4,61.4C159.1,17.6,106-0.6,62.2,20.7C45.5,28.9,31.7,42.2,23,58.6L8.3,52.1l5.3,47.2l38.2-28.2l-14.2-6.2
		C44.8,52,55.8,41.5,69.2,35c35.9-17.5,79.4-2.5,97,33.4c8.5,17.4,9.7,37.1,3.4,55.4s-19.4,33.1-36.8,41.6
		c-17.4,8.5-37.1,9.7-55.4,3.4c-18.3-6.3-33.1-19.4-41.6-36.8l-14.3,7c10.3,21.2,28.3,37.1,50.7,44.8c9.4,3.2,19.2,4.9,28.9,4.9
		c13.2,0,26.4-3,38.7-9c21.2-10.3,37.1-28.3,44.8-50.7C192.3,106.6,190.8,82.6,180.4,61.4z"/>
	<polygon class="st0" points="96,34.8 96,105.4 145.2,127.2 150.8,114.6 109.9,96.4 109.9,34.8 	"/>
</g>
</svg>
