<?xml version="1.0" encoding="utf-8"?>
<!-- Generator: Adobe Illustrator 24.0.1, SVG Export Plug-In . SVG Version: 6.00 Build 0)  -->
<svg version="1.1" id="Layer_1" xmlns="http://www.w3.org/2000/svg" xmlns:xlink="http://www.w3.org/1999/xlink" x="0px" y="0px"
	 viewBox="0 0 200 200" style="enable-background:new 0 0 200 200;" xml:space="preserve">
<style type="text/css">
	.st0{fill:#9D9FA2;}
</style>
<g>
	<path class="st0" d="M99,189.5c-49.6,0-90-40.4-90-90c0-49.6,40.4-90,90-90s90,40.4,90,90C189,149.1,148.6,189.5,99,189.5z
		 M99,20.3c-43.7,0-79.2,35.5-79.2,79.2c0,43.7,35.5,79.2,79.2,79.2c43.7,0,79.2-35.5,79.2-79.2C178.2,55.8,142.7,20.3,99,20.3z"/>
	<g>
		<rect x="88.3" y="75.7" class="st0" width="21.3" height="80.5"/>
		<rect x="88.3" y="42.8" class="st0" width="21.3" height="19.7"/>
	</g>
</g>
</svg>
