<?xml version="1.0" encoding="utf-8"?>
<!-- Generator: Adobe Illustrator 24.0.1, SVG Export Plug-In . SVG Version: 6.00 Build 0)  -->
<svg version="1.1" id="Layer_1" xmlns="http://www.w3.org/2000/svg" xmlns:xlink="http://www.w3.org/1999/xlink" x="0px" y="0px"
	 viewBox="0 0 200 200" style="enable-background:new 0 0 200 200;" xml:space="preserve">
<style type="text/css">
	.st0{fill:#9D9FA2;}
</style>
<g>
	<g>
		<path class="st0" d="M46.9,173.3L46.9,173.3c-20.9,0-23.2-9-23.2-12.9c0-2.5,1.5-4.8,3.8-5.8c6.2-2.7,13.3-8.8,17.6-13
			c-18.2-12.4-28.9-30.7-28.9-50c0-36.3,37.2-65.9,82.8-65.9c45.7,0,82.8,29.6,82.8,65.9c0,36.3-37.1,65.9-82.8,65.9
			c-5.3,0-11.5,3.1-18.1,6.4c-4,2-8.1,4.1-12.5,5.8C62.4,172,54.5,173.3,46.9,173.3z M42.2,160.5c1.4,0.1,2.9,0.2,4.7,0.2l0,0
			c6.1,0,12.5-1,17.1-2.8c3.8-1.4,7.6-3.4,11.3-5.2c7.6-3.8,15.4-7.8,23.7-7.8c38.7,0,70.2-23.9,70.2-53.3S137.7,38.3,99,38.3
			S28.8,62.2,28.8,91.6c0,16.8,10.7,32.8,28.7,42.9c2.1,1.2,3.4,3.6,3.3,6C60.6,145.1,51.1,154.2,42.2,160.5z"/>
	</g>
	<g>
		<path class="st0" d="M64.8,105.6c-6.8,0-12.4-5.5-12.4-12.3c0-6.8,5.5-12.4,12.4-12.4c6.9,0,12.4,5.5,12.4,12.4
			C77.2,100.1,71.7,105.6,64.8,105.6z"/>
		<path class="st0" d="M99,105.6c-6.8,0-12.4-5.5-12.4-12.3c0-6.8,5.5-12.4,12.4-12.4c6.8,0,12.4,5.5,12.4,12.4
			C111.4,100.1,105.8,105.6,99,105.6z"/>
		<g>
			<path class="st0" d="M133.2,105.6c-6.8,0-12.4-5.5-12.4-12.3c0-6.8,5.6-12.4,12.4-12.4c6.8,0,12.4,5.5,12.4,12.4
				C145.6,100.1,140,105.6,133.2,105.6z"/>
		</g>
	</g>
</g>
</svg>
