<?xml version="1.0" encoding="utf-8"?>
<!-- Generator: Adobe Illustrator 24.0.1, SVG Export Plug-In . SVG Version: 6.00 Build 0)  -->
<svg version="1.1" id="Layer_1" xmlns="http://www.w3.org/2000/svg" xmlns:xlink="http://www.w3.org/1999/xlink" x="0px" y="0px"
	 viewBox="0 0 200 200" style="enable-background:new 0 0 200 200;" xml:space="preserve">
<style type="text/css">
	.st0{fill:#9D9FA2;}
</style>
<g>
	<path class="st0" d="M99,189.5c-49.6,0-90-40.4-90-90c0-49.6,40.4-90,90-90s90,40.4,90,90C189,149.1,148.6,189.5,99,189.5z
		 M99,20.3c-43.7,0-79.2,35.5-79.2,79.2c0,43.7,35.5,79.2,79.2,79.2c43.7,0,79.2-35.5,79.2-79.2C178.2,55.8,142.7,20.3,99,20.3z"/>
	<path class="st0" d="M106.9,119.7h-17c0-2.5-0.1-3.9-0.1-4.5c0-5.5,0.9-10.1,2.7-13.6c1.8-3.6,5.5-7.6,11-12
		c5.5-4.5,8.8-7.4,9.8-8.8c1.6-2.2,2.5-4.6,2.5-7.2c0-3.7-1.5-6.8-4.4-9.4c-2.9-2.6-6.8-3.9-11.8-3.9c-4.8,0-8.8,1.4-12,4.1
		s-5.4,6.9-6.6,12.4l-17.2-2.1c0.5-8,3.9-14.7,10.2-20.3c6.3-5.6,14.6-8.4,24.8-8.4c10.8,0,19.4,2.8,25.7,8.5
		c6.4,5.6,9.6,12.2,9.6,19.7c0,4.1-1.2,8.1-3.5,11.8c-2.3,3.7-7.3,8.7-15,15.1c-4,3.3-6.4,5.9-7.4,7.9
		C107.3,111,106.9,114.6,106.9,119.7z M89.9,153v-18.8h18.8V153H89.9z"/>
</g>
</svg>
