<?xml version="1.0" encoding="utf-8"?>
<!-- Generator: Adobe Illustrator 24.0.1, SVG Export Plug-In . SVG Version: 6.00 Build 0)  -->
<svg version="1.1" id="Layer_1" xmlns="http://www.w3.org/2000/svg" xmlns:xlink="http://www.w3.org/1999/xlink" x="0px" y="0px"
	 viewBox="0 0 200 200" style="enable-background:new 0 0 200 200;" xml:space="preserve">
<style type="text/css">
	.st0{fill:#9D9FA2;}
</style>
<path class="st0" d="M39.3,183.6c-1.5,0-2.8-0.1-4-0.4c-7.4-1.5-12.5-6.1-14.8-13.3c-2.3-7.5-0.6-14.5,4.9-20.1l15.2-15.4
	c10-10.1,20.8-21.2,28.7-29l10.6-10.6L76.1,91C68.9,83.6,64,78.8,62.5,77c-1.3-1.3-3.1-2-5-2c-0.6,0-1.1,0.1-1.7,0.2
	c-2.2,0.6-3.8,2.2-4.5,4.5c-0.1,0.5-0.1,1.3-0.1,2.2c0,0.8,0,1.7-0.1,2.5c-0.2,2.5-3.4,6.1-4.1,6.8c-1,1-3.9,4.2-3.9,4.2l-1.9,2.1
	c-1,1.1-2.1,2.2-3.4,3.6c-0.8,0.8-1.9,1.2-3,1.2c-0.8,0-1.6-0.2-2.3-0.7C21.9,95,15.4,88.4,8.6,77.4c-1.1-1.7-0.8-3.9,0.6-5.3
	c1.7-1.7,2.9-3,4.1-4.3c1.5-1.7,3.1-3.4,5.4-5.6c0.5-0.4,4.4-3.4,7.3-3.4c1.2,0.1,1.7,0.2,2.2,0.2c1.9,0,3.6-0.6,4.8-1.8
	c1.6-1.6,2.3-4,1.9-6.7c-0.3-1.5,0.1-3.2,1.2-5c5.8-11,13.4-18.5,23.8-23.8c6.3-3.1,11.8-5.2,17.8-5.2c5.8,0,11.8,1.9,20.3,6.2
	c0.5,0.2,2.2,1.3,2.2,1.3l1.2,0.7c1.2,0.7,1.9,1.9,2.1,3.2c0.1,1.3-0.3,2.6-1.2,3.5c-0.8,0.8-1.2,1.1-1.6,1.6
	c-2.4,2.5-4.3,4.3-5.5,5.2c-1.2,0.9-2.7,1.3-4.9,1.3l-0.8,0c-1.8-0.1-3.3-0.2-4.7-0.2c-5.7,0-8.6,1.1-13.6,5.4
	c4.4,4.4,29.4,29.6,29.4,29.6l5.4-5.4c3.6-3.5,7.4-7.3,11.5-11.5c-2-10,0.8-20.2,7.3-27.9c6.5-7.7,16-12,26-12c2,0,4,0.2,5.9,0.5
	c0.5,0.1,0.9,0.2,1.4,0.4l1.3,0.4c1.4,0.4,2.5,1.5,2.9,3c0.4,1.5,0,3-1.1,4.1l-3.9,3.9c-2.9,2.9-5.5,5.5-8,8.1
	c-4.1,4.3-4.4,10.5-0.7,14.8c2.2,2.5,5.1,3.9,8.2,3.9c2.8,0,5.4-1.1,7.5-3.1c2.1-2,4.1-4.1,6.3-6.3l1.8-1.9c1.2-1.3,2.6-2.7,4-4.2
	c0.8-0.8,1.9-1.2,3-1.2c0.4,0,0.8,0.1,1.1,0.2c1.5,0.4,2.7,1.7,3,3.3c0.1,0.5,0.1,0.8,0.2,1.1l0.4,1.9c0.1,0.7,0.3,1.5,0.3,2.2
	c1,9.6-2.1,19.2-8.6,26.4C169.8,81.9,160.6,86,151,86c-1.8,0-3.6-0.1-5.4-0.4l-2-0.7l1,1c-2.9,2.9-13.7,13.8-16.3,16.3l10.5,10.5
	l2.3-2.3c0.8-0.8,1.8-1.2,3-1.2c1.1,0,2.2,0.4,3,1.2c4.4,4.5,5.4,5.5,6.6,6.7c1.4,1.4,2.8,2.9,6.3,6.4c3,3.1,6.1,6.2,9.2,9.2
	c4.3,4.3,8.2,8.2,12,12.1c5.4,5.5,7.8,13,6.3,20c-1.3,6.9-5.8,12.5-12.4,15.4c-3,1.4-6.1,2.1-9.2,2.1c-5.1,0-9.9-2-13.8-5.8
	c-11.7-11.5-16.8-16.6-24.6-24.5l-11-11.1c-0.8-0.8-1.2-1.8-1.2-3c0-1.1,0.4-2.2,1.2-3l1.6-1.6c-3.6-3.6-6.9-7.1-10.4-10.5l-7.2,7.2
	c-15.4,15.4-30.8,30.8-46.2,46.4C49.8,181.2,44.7,183.6,39.3,183.6z M88.3,98.4c-2.6,2.6-5.3,5.3-8.1,8.1l-10.5,10.6
	c-7,7.1-15.3,15.4-23,23.3l-0.9,0.9c-5.2,5.3-10.2,10.4-14.4,14.6c-3.2,3.3-4.1,7.2-2.8,11.6c1.3,4.2,4.1,6.7,8.4,7.5
	c0.8,0.2,1.6,0.3,2.3,0.3c3.1,0,6-1.5,9.1-4.6c15.3-15.6,30.8-31,46.2-46.5l8.2-8.3c5.4-5.4,10.8-10.9,16.1-16.3l0.2-0.6l0.5-0.2
	c3.2-3.1,6.3-6.3,9.4-9.4c3.2-3.2,6.4-6.4,9.5-9.6c0.7-0.7,2.9-2.9,6.6-2.9c0.6,0,1.1,0,1.8,0.2c1.4,0.2,2.7,0.3,4.1,0.3
	c7.2,0,14.1-3.1,18.9-8.4c4-4.4,6.3-10,6.6-15.9c-2,2.1-4,4.1-6,6c-3.7,3.6-8.4,5.5-13.4,5.5c-5.5,0-10.9-2.5-14.6-6.8
	c-6.5-7.5-6-18.8,1-26.1c1.9-2,3.9-4,5.9-5.9c-7,0.4-13.5,3.6-18,9.1c-4.9,5.8-7,13.5-5.8,21.1c0.2,1.6,0.6,4.6-2.1,7.4
	c-8.4,8.4-15.3,15.2-22,21.8L89.4,97.4L88.9,98L88.3,98.4L88.3,98.4z M130.8,143.4c9.5,9.7,14.4,14.5,27.3,27.3
	c2.3,2.2,5,3.4,7.9,3.4c1.8,0,3.7-0.4,5.8-1.4c4-1.8,6.7-5.1,7.5-9.2c0.9-4.5-0.6-9.2-4.2-12.7c-2-2.1-10-10.1-12-12.1
	c-2.9-3-5.8-5.9-8.8-8.9l-6.5-6.5c-1-1-1.7-1.8-3.8-3.9L125.5,138L130.8,143.4z M113.8,116.9c3.5,3.5,6.9,7,10.4,10.5l8.7-8.7
	l-10.4-10.4L113.8,116.9z M17.3,75.7c4.9,7.3,9.7,12.2,16.7,17l2.7-3c1.1-1.3,2.4-2.6,4-4.3c0.4-0.4,1.4-1.7,1.9-2.4v-1.1
	c-0.1-1.7,0-3.3,0.4-4.6c1.4-5.1,5.4-9,10.5-10.3c1.3-0.3,2.6-0.5,3.9-0.5c4.1,0,8,1.6,10.9,4.6c1.1,1.1,3.4,3.4,6.7,6.7
	c2.9,2.9,6.6,6.7,11,11.1c2.9-2.9,5.8-5.8,8.7-8.6c0,0-28.9-29.1-32.5-32.7c-0.8-0.8-1.2-1.9-1.2-3.1c0-1.1,0.5-2.1,1.3-3
	c8.5-8,13-10.6,23.1-10.6c1.4,0,3,0.1,4.7,0.2l0.7,0c0.2-0.2,0.9-0.9,1.7-1.8C85.8,26.2,81.6,25,77.6,25c-4.5,0-8.7,1.6-14.1,4.3
	c-8.6,4.2-15,10.6-20.1,20.2c0.5,5.3-1.1,10.3-4.5,13.7c-2.8,2.8-6.7,4.3-11,4.3c-0.6,0-1.1,0-1.7-0.1c-0.7,0.4-1.8,1-2.1,1.2
	c-1.6,1.5-2.8,2.7-4,4l-1,1C18.6,74.3,18,74.9,17.3,75.7z"/>
</svg>
